<mxfile host="app.diagrams.net" modified="2024-07-10T05:55:55.926Z" agent="Mozilla/5.0 (Windows NT 10.0; Win64; x64) AppleWebKit/537.36 (KHTML, like Gecko) Chrome/126.0.0.0 Safari/537.36" etag="eeXSA-64UDN6UEEPn84_" version="24.5.5" type="github">
  <diagram name="第 1 页" id="mNIoc9uP5Js2kJS1ogQP">
    <mxGraphModel dx="854" dy="734" grid="1" gridSize="10" guides="1" tooltips="1" connect="1" arrows="1" fold="1" page="1" pageScale="1" pageWidth="827" pageHeight="1169" math="0" shadow="0">
      <root>
        <mxCell id="0" />
        <mxCell id="1" parent="0" />
        <mxCell id="IykGiK63NscmSbcy7k2c-1" value="" style="shape=image;verticalLabelPosition=bottom;labelBackgroundColor=default;verticalAlign=top;aspect=fixed;imageAspect=0;image=data:image/jpeg,/9j/4RaERXhpZgAATU0AKgAAAAgABwESAAMAAAABAAEAAAEaAAUAAAABAAAAYgEbAAUAAAABAAAAagEoAAMAAAABAAIAAAExAAIAAAAdAAAAcgEyAAIAAAAUAAAAj4dpAAQAAAABAAAApAAAANAAFuNgAAAnEAAW42AAACcQQWRvYmUgUGhvdG9zaG9wIENDIChXaW5kb3dzKQAyMDI0OjA3OjEwIDEzOjE2OjUwAAAAA6ABAAMAAAAB//8AAKACAAQAAAABAAAAxqADAAQAAAABAAAAvQAAAAAAAAAGAQMAAwAAAAEABgAAARoABQAAAAEAAAEeARsABQAAAAEAAAEmASgAAwAAAAEAAgAAAgEABAAAAAEAAAEuAgIABAAAAAEAABVOAAAAAAAAAEgAAAABAAAASAAAAAH/2P/tAAxBZG9iZV9DTQAC/+4ADkFkb2JlAGSAAAAAAf/bAIQADAgICAkIDAkJDBELCgsRFQ8MDA8VGBMTFRMTGBEMDAwMDAwRDAwMDAwMDAwMDAwMDAwMDAwMDAwMDAwMDAwMDAENCwsNDg0QDg4QFA4ODhQUDg4ODhQRDAwMDAwREQwMDAwMDBEMDAwMDAwMDAwMDAwMDAwMDAwMDAwMDAwMDAwM/8AAEQgAmQCgAwEiAAIRAQMRAf/dAAQACv/EAT8AAAEFAQEBAQEBAAAAAAAAAAMAAQIEBQYHCAkKCwEAAQUBAQEBAQEAAAAAAAAAAQACAwQFBgcICQoLEAABBAEDAgQCBQcGCAUDDDMBAAIRAwQhEjEFQVFhEyJxgTIGFJGhsUIjJBVSwWIzNHKC0UMHJZJT8OHxY3M1FqKygyZEk1RkRcKjdDYX0lXiZfKzhMPTdePzRieUpIW0lcTU5PSltcXV5fVWZnaGlqa2xtbm9jdHV2d3h5ent8fX5/cRAAICAQIEBAMEBQYHBwYFNQEAAhEDITESBEFRYXEiEwUygZEUobFCI8FS0fAzJGLhcoKSQ1MVY3M08SUGFqKygwcmNcLSRJNUoxdkRVU2dGXi8rOEw9N14/NGlKSFtJXE1OT0pbXF1eX1VmZ2hpamtsbW5vYnN0dXZ3eHl6e3x//aAAwDAQACEQMRAD8A9VSSSSUpJJJJSkkkklKSSSSUpJJJJSlwdf1w65tBc6l3xrj8j13ixj9UegkQKHN+Fj//ACat8pl5fHx+9Dj4uHh9Ilw1xcXzNfmMeWfD7UuGr4teHycWr67dRaR6uPS8d9pcw/j6iv4313wHwMmi2gnlzYsaP83bb/4CpW/UjpbgfSuvqPb3Bw/8EY5Z2V9Sc+sbsXIryB+68Gt3yM2sd/4ErV/Dcmle2f8ACh/32Ng/psP64/wZf+hvUYfVenZ39EyGWu/cBh3/AG26Hq2vMc3p+dgOH2yh9BB9thEtn+TeyWf9NaHTvrV1TCIba77ZT+5aTvH9W/3O/wC3fUTMnwyxxYJiY6A/9zOPoXQ56jw5YmJ7j/vXvkln9L650/qjP1d+24CX0P0sb/Z/Pb/Lr9i0FnzhKEjGQMZDoW5GUZC4kEHqFJJJJqX/0PVUkkklKSSSSUpJJJJSkkkklKSSSSUpc3d9c6aMq7HfiPIptfUXNe0zsc6vdtO36W1dIuXy/qU6/IvyGZu032Pt2uqkDe51m2RY36O5WeU+7XL7xtQ4fn/7hg5j3qHs7/pfL/3Tco+uPRrTFhtx/A2Mkf51Ju/6a1sbLxctnqY1zLmfvMcHD/ori8n6ndYpBdSaskDsx2x/+Zb7P/BlkObl4GSN7bcPJHB1ref6rht3q59x5bKP1GXXtfH/AM30za/3rPjP63Hp3+X/AJ3yvqDmtc0tcA5rhBB1BBXPdV+puHkB1vTyMS/nZzS7/rf+C/61/wBtKh0n653VFtPVB6tfH2lg94/42pn0/wCtV/20uupuqvqbdS9tlTxLHtMgjyIVSUOY5Sd2Y3+lHXHNsCWHmI7X4H54vmOVj53TcsV5DXY2TX7q3tMf9cotb9Jv+ti6v6u/WwZb2YPUSGZLvbVeNG2H9xw/wd7v+27f8H/o1udR6bh9TxnY2Wzew6tcNHMd2sqf+Y9ec9a6Pk9Iyvs+R+kqsk0XgQHgf9Raz89iuQy4uchwZBw5QNCPzh/6ra0seTlpcUDxQO//AKF/376gkuY+qP1kdmj9m5z92VW2abXHW1g+kHfvX1fnf6Rn6T/SLp1m5cUsUzCW4/5w7t3HkjOIlF//0fVUkkklKSSSSUpJJJJSkkkklKSSSSUpV25+C6w1NyajY0lrmB7S4EHa5pbP0muVheddU6V1H7dl2OwrnVPyLnteKy8Fpse9r/aHe3arPKcvDMZCc+CgK8WDmM0sYBjHjvd9FQcrExsyk0ZVTbqncteJ+Y/dd/KXm2J1POw3fqmTZVtMmsGW/wBqmzcz/orqekfXKq57aOptbj2HRuQ3+aJ/l7v5j/z2ps3w7Ni9eM8da+n05B/g/wDerMfOY8npmOG/3tYfa5nXvqndgtdl9P3X4okvpPusrH7zP9NU3/t5n/CrP6D9YbukXSJtwrTN1I15/wAPR/wv8n/DL0lcF9cugNwLP2nhsjEudGRW0aV2OPtsb+7Vc7/Mu/41SctzYzD2M/q4tBI/pef9f92THm5c4z7uLStx2/8AQXucfIpyaGZFDxZVa0OY9vBBVfqvTMbqmDZh5A9r9WPH0mPH0LWfymLkfqN1w1ZR6Te79DfL8afzbB77Kh/Jtb+l/wCM9T/SLulSzY5YMtA7eqEvDo2scxlx2RvpIPkOQzN6X1B9Lz6WZh2Ate3jcPdXazd/g7G+7+p7F6f0TqtfVumU5rBtc8bbWfu2N9trP8/6H8hc1/jF6WDRT1epvupIpySO9bz+hef+Ku9n/X1R/wAXfVHVdRv6Y936PKZ61YP+krhtm3/jKfpf8QrecjPy4yfpw3/7sf8AdsGIHFlMP0Zfyi//0vVAQeCnQnVlurdW92jt/V/8ikyyeDuHCNdlLOysdtwoc8C13Dfj5oy8w6v/AIwWY/1mvqYxr8CjJYx+UA4wxnpsynel9K30bG3fR/8ABF6UL2vYLK3A1uAc1/Ygjc1ygwHmDLIM0IxiJn2TE3x4ukp/1l8xACPCSdPVfSSQkDlOgtabNdQzx7n/AMxRQABA0A4CnIWLpJJIKUmJA5TqLmhwg/I9wUlLpEgCToByUIl1ZhxjwdwD/wCZLN+tHWGdJ+r+bm2EB7Ky2kEE7rH+ymqB+/YUpAgEx1NaeahV6p8rp/SOs1EW1ttLdBa322NP8mwbX/8AfFxPX+gZXR37yfWwrDtrujUE8VXt/e/4T6Fn/Bq59Qfrg3q2blYeQxtF3pssorEkvDDZ9odv2tY3099H6NdjlVU5VL8bJYLarmlrqj+cD/r9NS/Duc5rHCHvgCWvuYonihHX/J/N+ix81y2KZPB/gzr/AKTyn1Q+sbq7a+k5jt1Vh24lrjq0/wDcZ5P5jv8AAf8AbP8Aol1+ZiUZuLbiZDd9N7Cx7fJwjT+UvJ+rYl/SepXYFjzvocDVaNCWH30XN/l/+jWL036vdTPVejYua6PVezbdGg9Rh9K7T/jGe1WedhG45segnvX73zRn/hMPLSlRxz/R2/u/uvk9xyumZ1le79awLiA4d31O3Mf/AG9u5exYWVXmYdGXX9DIrba3vo8B/wDFeWf4waxi/Wm8gwMmqq+Pk7HP/tuu4+oGR6/1TwiTJr9Wr5V22Vs/8DaxDmpDJjxz6/8AfBdgjwTlHp/B1OuYI6h0fMwo3Ovpe1g/lxNR/s2bF5F9Xc/7P1vpmSHbR9oqDj/JtPoWT/YuXta8jb9QPrdVkh9eLUW127mH12jRr9zO37qj5fIBGcZEAHv47rssCTEgbP8A/9P1VDeKy4Oj3DuNFF1rXaN93kNT8/3VGyu11T49pLTtA5mP3k4Dvop806z9QqT9ZqsWnLvdidQdbbkWfZja+hxPq7PtdbRRtvc61tfq/wAx/wAIvScemuiuutsvZU1rGFxkw0BrT+7+aqbMl7DscTtbppo5v/kv6j1brfP0CNdR+64fvN/cd++1OlAhFtoOB4Tqq7aY3bqndnA6f530f89cb9fPrlldMDejdMuH2+9gffkga0VOnZs/N+03/mf6Gv8ASf6NMMUvR9a+t/1e6I/0uoZjW5ESMesGy3xH6KoPczd/wixW/wCNj6rF+0sy2t/fNOn+a17rP+gvJXsLXuJO5zzuc46lxPLnuPuc5RSpT790j6wdG61WbOmZdeTt+mxph7f+MpfttZ/aYtFfOmNkZGJk15eJa7HyaTNV1ZhzT/35rvz63ex69g+pv1rd9Y+nu+0PbRn4kMy62CA7dPpZNbnfRru2/R/wdqVKepc5oEHWeyxvrH0KjrnSren23Pxa3FtjX1w4tew7q5rf7X17vp1fnrRaWgRWC6eXk6H+2fpf2UO20MG5zuDEjx/dqb+/+9YnCPRDxP8Ai8+rbcXMyOp23P8AXq9XFrp9B+O1zC7TM/WALH+tWxmxjP5pegVitujRBPM8n5rMddde9lbZAkENBJPP0nP+l7VouZY3j3j7nf8AkXIyjVAndQLwH+NRlWPmdOzCQ119dlLpMSKy22v/ADfWtVz/ABV5wvwOoYwcHNova8QZ/nWD/wBJLsSMe4hlzGvIPtD2yQT/ACXBFrppqn0q217udoAn/NTjmPtDGRt1WDGOPjaed0Lo3UbhkZ2FTk3BorFlrA5waC5zWS783c96sYeDh4GOMbCpZj0NJLa62hrQXHc47W/vOKOkorNVbJSkkkkFP//U9VSSSSUgyMSu8T9Gzs8f9+/eVGsWUXeg/wBu4y09t35j2/yXfQctVV82n1adzf5yv3MPw7KSE/0TsfwQQsHs2eo47WRudPYDV0rwLP6ld1LqWV1Owk2Zdr7ROsNJ20s/q10trYvdsyt1vT8yqvV1ldzGR4uDgP8ApFfP1bS2tjXCC1oH3aJqmZJJk6kpkkklKW99ROou6f8AWzBMn0sxxw7mj84Wj9FP9S9lawVf6BTZf13ptdc7vtVJBE6bXep+b/USU+7vJAiYcTAPh4u/stVJlb8u72e2tugPZrf/ACblbyZIO3ktftHmRH8UeiltNTa29uT4nuU4S4Y31KqWpx6qGwwanlx5KKkkoySdSlSSSSSlJJJJKUkkkkp//9X1QOaeCnQn1kHczUd2/wAWpMskwDPYjuEa7KYPzcdmQMdzv0hgcaAn6IJRbbBWwuOvgPEryvq/+MG2n6z3+k3d06jKa1z9v6TZUWV5Xp1udtd72Xen6i9OFldrWZG6a3AOrJ0EOEtdDvztpUOD3zLJ7wiI8Z9ng39rpx/1l8+Co8F3Xqv95djS1obyRyfM6lcF9bf8Xd2Xe/qHQwxzrXGy/CefTlzvc+zFv+jX6r/p0WfoP8J+jXducDo7QHhuu539n6W1Rfe1mhhv9Y6/5jNysUfO2N8EzcDL6fZ6edTbhvBgjJrcwSP3bmiyqz+RsVYWUEx61Qngl2n/AFK9/sy63N2vl7fDYI/8ELlWDentdvbisDjy4V1T/wCe07gPZVvjPTOi9S6o8M6fi35ZJgmthZUP+My79lTF6Z9TfqQ3oT/t3UHst6i9uytlc+lS0/SaxzvddfZH6TIf/wAVV+jXRtzWRtktA4BaI/8AAyisuZYIEPB5DTP/AEHbXoGJHRTOyQA8CSw7o8f3v+ijG1grNpPsA3E+XKC18cEuaO4+kP67fpLH+t3Vf2T9W8zKoDnPsb6NArjS20+nXZ/Urc71HpkweE8NcX6PF8t/1kir12dnFzKsoOLA5pYdQ4QdfolH4XnH+Lf61Zud1PJwM4F7raRZS9gArb6JPqh4+lvt9ev87/B/4Neg7i4w33H8B8XKLl45vaiM5icv6Zh8m/p/5q6fDxHgvh6Wl3tkDueFJQYwN15ceSpqQrVJJJJKUkkkkp//1vVUN+xxGkuHBUTZvMNBPlx/nEpGlz2ua8wCCIb/AOSTgK30U+c9W+oOJZ9Y6WYzs53Ts42PzX1MY9tTyd/6PLf7q22uc/e307vTXoDKGV1MbRoxjA1msna0bGNbY/dt/rKo7DyWGNhd/KbwVYxMbKZyQxh1LT7p+X5qeYxAsSCL8Grk5LqZFzm4zSQ3VwbJcdtbfUcf0jrHe1ik3DvPIDB/KP8AcgdcPRMq7G6Z1W0Y+Qy6rJw3F20G6sufT6bne1zvY/dS9HxerYuS99bbG2PrJBczv/K2/nM/lsTxx1pHaj9rGckLA4hZJAF9Y/MHA6p17qnTCfU+rufewTFlDq7mkD84nG9Z1bf+Masdv+Maxz9g+r+aXTG1pJcPl6C9CngtPPBCiXv/AHnfeUzil3X6PO9K6r1TqLhv6FmYFJMOuyn117R+96FmzIf/AGK1qWN9JjrLCGsrBc55MBrQNznuP5rWtVpx5J7ckqrk34TgcbKtFVWQx1bieS1zSx+3932u/nHp8TM6D1FbOcYi5ERHcmk+JZbeGvrIuqIDm27tNp1a6u5v09yXVuk9P6rgvwuo1+vVYQ4AEseXt/m3sdWW++v95U+hdY6Rksxen9EZGCyotosghoZV+jAY2z9I/j6divZOHkl5dPrDseCB4bf/ACKEo6jiqFjiHjEqhkjPi4DxcMjCVdJx+aLzn1L+qtXR7bsvPxracwusoxLMi5lp+zudvY3bjH023PY2v1rHrs2vA0iI8OFmVYN73jc3Y2dXO5j4LRNRGrD/AGXcfL85qZIRFC7XhKkhMc8HaWn8o/zkVRkJUkkkkpSSSSSn/9f1VJJJJSkkkklPnn16FlvXOjWkA1WveWEa60Mse/d/V3qm1zmODmEtc3VrmmCPgQuk+sdVdH1r+rmQ6K6XuzMcPP0PXvqb6DH/APH+nbW1N1L6u1vLn0N+y2jUsP8ANO/qu/wa0OV5iABjLTx8OHh9Tj/Efh+TJIZcJsxBuG0rM5ZOKEv8Nr9O+sdlZDMvUf6Vo/8APlY/6utbpzcc1C0OBa4SHAjbr/KXFX0XY9np3sNb+YPBH7zXfRe3+qjsI2Ujyapp8rjyESieG+2sS08fxXPhBhlj7hGnrPBkif6+nqdnN6yTLMbWP8IRoP8Ai2H/AKt6yHPc63e8lziQS4mSVNrLLX7K2lzj2H5VqdP6HNjX3j1HSDsH0APF7k+8PLx8f+fJhEOc+Izs/IDv8uHH5fvS/wAfI4f1B9fHxKr2MlmM7IpJPBix3tC9IXK/UPFot6Tflj34+Rn5d+JpDTU61za3tb/K9PcxdUsrLk4+HT5YiH0i9JgwjEJ0b9ycssv72Q8RUkkko2ZSSSSSlJJJJKUkkkkp/9D1VJJJJSkkkklNPq3ScHrGC/Bzmb6XwQQS17HtO6u6mxvurtrd9FyysP6oehk1X5XWOpZ7ccg1U33xXoI/TMpZV9odr/hV0KSIvopy87pNdtewsF1PZh0c3/i3LCPQmNtZF5FTSAGke/8Aqz+9/YXYqm//AJRb/VVzB94o+39f5S9PE5/PfcOKP3nh4unzcX+F7Xq4P77Ww+j1MZtLA2vktIlzo/eVHL+pgy32su6x1I4WQ4uvwvWaK3B306N4q9ZmM9vsfSyxdGkquTj4jx3fW27i9vgj7fDwV6eD5OH+rwosbHoxcevGx2CqiloZVW0QGtaNrWtRUkkxepJJJJSkkkklKSSSSUpJJJJT/9n/7R50UGhvdG9zaG9wIDMuMAA4QklNBCUAAAAAABAAAAAAAAAAAAAAAAAAAAAAOEJJTQQ6AAAAAADXAAAAEAAAAAEAAAAAAAtwcmludE91dHB1dAAAAAUAAAAAUHN0U2Jvb2wBAAAAAEludGVlbnVtAAAAAEludGUAAAAASW1nIAAAAA9wcmludFNpeHRlZW5CaXRib29sAAAAAAtwcmludGVyTmFtZVRFWFQAAAABAAAAAAAPcHJpbnRQcm9vZlNldHVwT2JqYwAAAAVoIWg3i75/bgAAAAAACnByb29mU2V0dXAAAAABAAAAAEJsdG5lbnVtAAAADGJ1aWx0aW5Qcm9vZgAAAAlwcm9vZkNNWUsAOEJJTQQ7AAAAAAItAAAAEAAAAAEAAAAAABJwcmludE91dHB1dE9wdGlvbnMAAAAXAAAAAENwdG5ib29sAAAAAABDbGJyYm9vbAAAAAAAUmdzTWJvb2wAAAAAAENybkNib29sAAAAAABDbnRDYm9vbAAAAAAATGJsc2Jvb2wAAAAAAE5ndHZib29sAAAAAABFbWxEYm9vbAAAAAAASW50cmJvb2wAAAAAAEJja2dPYmpjAAAAAQAAAAAAAFJHQkMAAAADAAAAAFJkICBkb3ViQG/gAAAAAAAAAAAAR3JuIGRvdWJAb+AAAAAAAAAAAABCbCAgZG91YkBv4AAAAAAAAAAAAEJyZFRVbnRGI1JsdAAAAAAAAAAAAAAAAEJsZCBVbnRGI1JsdAAAAAAAAAAAAAAAAFJzbHRVbnRGI1B4bEBiwAAAAAAAAAAACnZlY3RvckRhdGFib29sAQAAAABQZ1BzZW51bQAAAABQZ1BzAAAAAFBnUEMAAAAATGVmdFVudEYjUmx0AAAAAAAAAAAAAAAAVG9wIFVudEYjUmx0AAAAAAAAAAAAAAAAU2NsIFVudEYjUHJjQFkAAAAAAAAAAAAQY3JvcFdoZW5QcmludGluZ2Jvb2wAAAAADmNyb3BSZWN0Qm90dG9tbG9uZwAAAAAAAAAMY3JvcFJlY3RMZWZ0bG9uZwAAAAAAAAANY3JvcFJlY3RSaWdodGxvbmcAAAAAAAAAC2Nyb3BSZWN0VG9wbG9uZwAAAAAAOEJJTQPtAAAAAAAQAJYAAAABAAIAlgAAAAEAAjhCSU0EJgAAAAAADgAAAAAAAAAAAAA/gAAAOEJJTQQNAAAAAAAEAAAAHjhCSU0EGQAAAAAABAAAAB44QklNA/MAAAAAAAkAAAAAAAAAAAEAOEJJTScQAAAAAAAKAAEAAAAAAAAAAjhCSU0D9QAAAAAASAAvZmYAAQBsZmYABgAAAAAAAQAvZmYAAQChmZoABgAAAAAAAQAyAAAAAQBaAAAABgAAAAAAAQA1AAAAAQAtAAAABgAAAAAAAThCSU0D+AAAAAAAcAAA/////////////////////////////wPoAAAAAP////////////////////////////8D6AAAAAD/////////////////////////////A+gAAAAA/////////////////////////////wPoAAA4QklNBAAAAAAAAAIAAThCSU0EAgAAAAAACAAAAAAAAAAAOEJJTQQwAAAAAAAEAQEBAThCSU0ELQAAAAAABgABAAAABDhCSU0ECAAAAAAAEAAAAAEAAAJAAAACQAAAAAA4QklNBB4AAAAAAAQAAAAAOEJJTQQaAAAAAAM7AAAABgAAAAAAAAAAAAAAvQAAAMYAAAADVv5yRwAxAAAAAQAAAAAAAAAAAAAAAAAAAAAAAAABAAAAAAAAAAAAAADGAAAAvQAAAAAAAAAAAAAAAAAAAAABAAAAAAAAAAAAAAAAAAAAAAAAABAAAAABAAAAAAAAbnVsbAAAAAIAAAAGYm91bmRzT2JqYwAAAAEAAAAAAABSY3QxAAAABAAAAABUb3AgbG9uZwAAAAAAAAAATGVmdGxvbmcAAAAAAAAAAEJ0b21sb25nAAAAvQAAAABSZ2h0bG9uZwAAAMYAAAAGc2xpY2VzVmxMcwAAAAFPYmpjAAAAAQAAAAAABXNsaWNlAAAAEgAAAAdzbGljZUlEbG9uZwAAAAAAAAAHZ3JvdXBJRGxvbmcAAAAAAAAABm9yaWdpbmVudW0AAAAMRVNsaWNlT3JpZ2luAAAADWF1dG9HZW5lcmF0ZWQAAAAAVHlwZWVudW0AAAAKRVNsaWNlVHlwZQAAAABJbWcgAAAABmJvdW5kc09iamMAAAABAAAAAAAAUmN0MQAAAAQAAAAAVG9wIGxvbmcAAAAAAAAAAExlZnRsb25nAAAAAAAAAABCdG9tbG9uZwAAAL0AAAAAUmdodGxvbmcAAADGAAAAA3VybFRFWFQAAAABAAAAAAAAbnVsbFRFWFQAAAABAAAAAAAATXNnZVRFWFQAAAABAAAAAAAGYWx0VGFnVEVYVAAAAAEAAAAAAA5jZWxsVGV4dElzSFRNTGJvb2wBAAAACGNlbGxUZXh0VEVYVAAAAAEAAAAAAAlob3J6QWxpZ25lbnVtAAAAD0VTbGljZUhvcnpBbGlnbgAAAAdkZWZhdWx0AAAACXZlcnRBbGlnbmVudW0AAAAPRVNsaWNlVmVydEFsaWduAAAAB2RlZmF1bHQAAAALYmdDb2xvclR5cGVlbnVtAAAAEUVTbGljZUJHQ29sb3JUeXBlAAAAAE5vbmUAAAAJdG9wT3V0c2V0bG9uZwAAAAAAAAAKbGVmdE91dHNldGxvbmcAAAAAAAAADGJvdHRvbU91dHNldGxvbmcAAAAAAAAAC3JpZ2h0T3V0c2V0bG9uZwAAAAAAOEJJTQQoAAAAAAAMAAAAAj/wAAAAAAAAOEJJTQQRAAAAAAABAQA4QklNBBQAAAAAAAQAAAAGOEJJTQQMAAAAABVqAAAAAQAAAKAAAACZAAAB4AABHuAAABVOABgAAf/Y/+0ADEFkb2JlX0NNAAL/7gAOQWRvYmUAZIAAAAAB/9sAhAAMCAgICQgMCQkMEQsKCxEVDwwMDxUYExMVExMYEQwMDAwMDBEMDAwMDAwMDAwMDAwMDAwMDAwMDAwMDAwMDAwMAQ0LCw0ODRAODhAUDg4OFBQODg4OFBEMDAwMDBERDAwMDAwMEQwMDAwMDAwMDAwMDAwMDAwMDAwMDAwMDAwMDAz/wAARCACZAKADASIAAhEBAxEB/90ABAAK/8QBPwAAAQUBAQEBAQEAAAAAAAAAAwABAgQFBgcICQoLAQABBQEBAQEBAQAAAAAAAAABAAIDBAUGBwgJCgsQAAEEAQMCBAIFBwYIBQMMMwEAAhEDBCESMQVBUWETInGBMgYUkaGxQiMkFVLBYjM0coLRQwclklPw4fFjczUWorKDJkSTVGRFwqN0NhfSVeJl8rOEw9N14/NGJ5SkhbSVxNTk9KW1xdXl9VZmdoaWprbG1ub2N0dXZ3eHl6e3x9fn9xEAAgIBAgQEAwQFBgcHBgU1AQACEQMhMRIEQVFhcSITBTKBkRShsUIjwVLR8DMkYuFygpJDUxVjczTxJQYWorKDByY1wtJEk1SjF2RFVTZ0ZeLys4TD03Xj80aUpIW0lcTU5PSltcXV5fVWZnaGlqa2xtbm9ic3R1dnd4eXp7fH/9oADAMBAAIRAxEAPwD1VJJJJSkkkklKSSSSUpJJJJSkkkklKXB1/XDrm0FzqXfGuPyPXeLGP1R6CRAoc34WP/8AJq3ymXl8fH70OPi4eH0iXDXFxfM1+Yx5Z8PtS4avi14fJxavrt1FpHq49Lx32lzD+PqK/jfXfAfAyaLaCeXNixo/zdtv/gKlb9SOluB9K6+o9vcHD/wRjlnZX1Jz6xuxcivIH7rwa3fIzax3/gStX8NyaV7Z/wAKH/fY2D+mw/rj/Bl/6G9Rh9V6dnf0TIZa79wGHf8Abboera8xzen52A4fbKH0EH22ES2f5N7JZ/01odO+tXVMIhtrvtlP7lpO8f1b/c7/ALd9RMyfDLHFgmJjoD/3M4+hdDnqPDliYnuP+9e+SWf0vrnT+qM/V37bgJfQ/Sxv9n89v8uv2LQWfOEoSMZAxkOhbkZRkLiQQeoUkkkmpf/Q9VSSSSUpJJJJSkkkklKSSSSUpJJJJSlzd31zpoyrsd+I8im19Rc17TOxzq9207fpbV0i5fL+pTr8i/IZm7TfY+3a6qQN7nWbZFjfo7lZ5T7tcvvG1Dh+f/uGDmPeoezv+l8v/dNyj649GtMWG3H8DYyR/nUm7/prWxsvFy2epjXMuZ+8xwcP+iuLyfqd1ikF1JqyQOzHbH/5lvs/8GWQ5uXgZI3ttw8kcHWt5/quG3ern3Hlso/UZde18f8AzfTNr/es+M/rcenf5f8AnfK+oOa1zS1wDmuEEHUEFc91X6m4eQHW9PIxL+dnNLv+t/4L/rX/AG0qHSfrndUW09UHq18faWD3j/jamfT/AK1X/bS66m6q+pt1L22VPEse0yCPIhVJQ5jlJ3Zjf6Udcc2wJYeYjtfgfni+Y5WPndNyxXkNdjZNfure0x/1yi1v0m/62Lq/q79bBlvZg9RIZku9tV40bYf3HD/B3u/7bt/wf+jW51HpuH1PGdjZbN7Dq1w0cx3ayp/5j15z1ro+T0jK+z5H6SqyTReBAeB/1FrPz2K5DLi5yHBkHDlA0I/OH/qtrSx5OWlxQPFA7/8AoX/fvqCS5j6o/WR2aP2bnP3ZVbZptcdbWD6Qd+9fV+d/pGfpP9IunWblxSxTMJbj/nDu3ceSM4iUX//R9VSSSSUpJJJJSkkkklKSSSSUpJJJJSlXbn4LrDU3JqNjSWuYHtLgQdrmls/Sa5WF511TpXUft2XY7CudU/Iue14rLwWmx72v9od7dqs8py8MxkJz4KArxYOYzSxgGMeO930VBysTGzKTRlVNuqdy14n5j9138pebYnU87Dd+qZNlW0yawZb/AGqbNzP+iup6R9cqrnto6m1uPYdG5Df5on+Xu/mP/PamzfDs2L14zx1r6fTkH+D/AN6sx85jyemY4b/e1h9rmde+qd2C12X0/dfiiS+k+6ysfvM/01Tf+3mf8Ks/oP1hu6RdIm3CtM3UjXn/AA9H/C/yf8MvSVwX1y6A3As/aeGyMS50ZFbRpXY4+2xv7tVzv8y7/jVJy3NjMPYz+ri0Ej+l5/1/3ZMeblzjPu4tK3Hb/wBBe5x8inJoZkUPFlVrQ5j28EFV+q9MxuqYNmHkD2v1Y8fSY8fQtZ/KYuR+o3XDVlHpN7v0N8vxp/NsHvsqH8m1v6X/AIz1P9Iu6VLNjlgy0Dt6oS8OjaxzGXHZG+kg+Q5DM3pfUH0vPpZmHYC17eNw91drN3+Dsb7v6nsXp/ROq19W6ZTmsG1zxttZ+7Y322s/z/ofyFzX+MXpYNFPV6m+6kinJI71vP6F5/4q72f9fVH/ABd9UdV1G/pj3fo8pnrVg/6SuG2bf+Mp+l/xCt5yM/LjJ+nDf/ux/wB2wYgcWUw/Rl/KL//S9UBB4KdCdWW6t1b3aO39X/yKTLJ4O4cI12Us7Kx23ChzwLXcN+PmjLzDq/8AjBZj/Wa+pjGvwKMljH5QDjDGemzKd6X0rfRsbd9H/wAEXpQva9gsrcDW4BzX9iCNzXKDAeYMsgzQjGImfZMTfHi6Sn/WXzEAI8JJ09V9JJCQOU6C1ps11DPHuf8AzFFAAEDQDgKchYukkkgpSYkDlOouaHCD8j3BSUukSAJOgHJQiXVmHGPB3AP/AJks360dYZ0n6v5ubYQHsrLaQQTusf7KaoH79hSkCATHU1p5qFXqnyun9I6zURbW20t0FrfbY0/ybBtf/wB8XE9f6BldHfvJ9bCsO2u6NQTxVe397/hPoWf8Grn1B+uDerZuVh5DG0XemyyisSS8MNn2h2/a1jfT30fo12OVVTlUvxslgtquaWuqP5wP+v01L8O5zmscIe+AJa+5iieKEdf8n836LHzXLYpk8H+DOv8ApPKfVD6xurtr6TmO3VWHbiWuOrT/ANxnk/mO/wAB/wBs/wCiXX5mJRm4tuJkN303sLHt8nCNP5S8n6tiX9J6ldgWPO+hwNVo0JYffRc3+X/6NYvTfq91M9V6Ni5ro9V7Nt0aD1GH0rtP+MZ7VZ52Ebjmx6Ce9fvfNGf+Ew8tKVHHP9Hb+7+6+T3HK6ZnWV7v1rAuIDh3fU7cx/8Ab27l7FhZVeZh0Zdf0Mittre+jwH/AMV5Z/jBrGL9abyDAyaqr4+Tsc/+267j6gZHr/VPCJMmv1avlXbZWz/wNrEOakMmPHPr/wB8F2CPBOUen8HU65gjqHR8zCjc6+l7WD+XE1H+zZsXkX1dz/s/W+mZIdtH2ioOP8m0+hZP9i5e1ryNv1A+t1WSH14tRbXbuYfXaNGv3M7fuqPl8gEZxkQAe/juuywJMSBs/wD/0/VUN4rLg6PcO40UXWtdo33eQ1Pz/dUbK7XVPj2ktO0DmY/eTgO+inzTrP1CpP1mqxacu92J1B1tuRZ9mNr6HE+rs+11tFG29zrW1+r/ADH/AAi9Jx6a6K662y9lTWsYXGTDQGtP7v5qpsyXsOxxO1ummjm/+S/qPVut8/QI11H7rh+839x377U6UCEW2g4HhOqrtpjduqd2cDp/nfR/z1xv18+uWV0wN6N0y4fb72B9+SBrRU6dmz837Tf+Z/oa/wBJ/o0wxS9H1r63/V7oj/S6hmNbkRIx6wbLfEfoqg9zN3/CLFb/AI2PqsX7SzLa39806f5rXus/6C8lewte4k7nPO5zjqXE8ue4+5zlFKlPv3SPrB0brVZs6Zl15O36bGmHt/4yl+21n9pi0V86Y2RkYmTXl4lrsfJpM1XVmHNP/fmu/Prd7Hr2D6m/Wt31j6e77Q9tGfiQzLrYIDt0+lk1ud9Gu7b9H/B2pUp6lzmgQdZ7LG+sfQqOudKt6fbc/FrcW2NfXDi17Durmt/tfXu+nV+etFpaBFYLp5eTof7Z+l/ZQ7bQwbnO4MSPH92pv7/71icI9EPE/wCLz6ttxczI6nbc/wBer1cWun0H47XMLtMz9YAsf61bGbGM/ml6BWK26NEE8zyfmsx11172VtkCQQ0Ek8/Sc/6XtWi5ljePePud/wCRcjKNUCd1AvAf41GVY+Z07MJDXX12UukxIrLba/8AN9a1XP8AFXnC/A6hjBwc2i9rxBn+dYP/AEkuxIx7iGXMa8g+0PbJBP8AJcEWummqfSrbXu52gCf81OOY+0MZG3VYMY4+Np53QujdRuGRnYVOTcGisWWsDnBoLnNZLvzdz3qxh4OHgY4xsKlmPQ0ktrraGtBcdzjtb+84o6Sis1VslKSSSQU//9T1VJJJJSDIxK7xP0bOzx/3795UaxZRd6D/AG7jLT23fmPb/Jd9By1VXzafVp3N/nK/cw/DspIT/ROx/BBCwezZ6jjtZG509gNXSvAs/qV3UupZXU7CTZl2vtE6w0nbSz+rXS2ti92zK3W9PzKq9XWV3MZHi4OA/wCkV8/VtLa2NcILWgfdomqZkkmTqSmSSSUpb31E6i7p/wBbMEyfSzHHDuaPzhaP0U/1L2VrBV/oFNl/Xem11zu+1UkETptd6n5v9RJT7u8kCJhxMA+Hi7+y1UmVvy7vZ7a26A9mt/8AJuVvJkg7eS1+0eZEfxR6KW01Nrb25Pie5ThLhjfUqpanHqobDBqeXHkoqSSjJJ1KVJJJJKUkkkkpSSSSSn//1fVA5p4KdCfWQdzNR3b/ABakyyTAM9iO4Rrspg/Nx2ZAx3O/SGBxoCfoglFtsFbC46+A8SvK+r/4wbafrPf6Td3TqMprXP2/pNlRZXlenW5213vZd6fqL04WV2tZkbprcA6snQQ4S10O/O2lQ4PfMsnvCIjxn2eDf2unH/WXz4KjwXdeq/3l2NLWhvJHJ8zqVwX1t/xd3Zd7+odDDHOtcbL8J59OXO9z7MW/6Nfqv+nRZ+g/wn6Nd25wOjtAeG67nf2fpbVF97WaGG/1jr/mM3KxR87Y3wTNwMvp9np51NuG8GCMmtzBI/duaLKrP5GxVhZQTHrVCeCXaf8AUr3+zLrc3a+Xt8Ngj/wQuVYN6e129uKwOPLhXVP/AJ7TuA9lW+M9M6L1Lqjwzp+LflkmCa2FlQ/4zLv2VMXpn1N+pDehP+3dQey3qL27K2Vz6VLT9JrHO9119kfpMh//ABVX6NdG3NZG2S0DgFoj/wADKKy5lggQ8HkNM/8AQdtegYkdFM7JADwJLDujx/e/6KMbWCs2k+wDcT5coLXxwS5o7j6Q/rt+ksf63dV/ZP1bzMqgOc+xvo0CuNLbT6ddn9StzvUemTB4Tw1xfo8Xy3/WSKvXZ2cXMqyg4sDmlh1DhB1+iUfhecf4t/rVm53U8nAzgXutpFlL2ACtvok+qHj6W+316/zv8H/g16DuLjDfcfwHxcouXjm9qIzmJy/pmHyb+n/mrp8PEeC+HpaXe2QO54UlBjA3Xlx5KmpCtUkkkkpSSSSSn//W9VQ37HEaS4cFRNm8w0E+XH+cSkaXPa5rzAIIhv8A5JOArfRT5z1b6g4ln1jpZjOzndOzjY/NfUxj21PJ3/o8t/urba5z97fTu9NegMoZXUxtGjGMDWaydrRsY1tj923+sqjsPJYY2F38pvBVjExspnJDGHUtPun5fmp5jECxIIvwauTkupkXObjNJDdXBslx21t9Rx/SOsd7WKTcO88gMH8o/wByB1w9EyrsbpnVbRj5DLqsnDcXbQbqy59Ppud7XO9j91L0fF6ti5L31tsbY+skFzO/8rb+cz+WxPHHWkdqP2sZyQsDiFkkAX1j8wcDqnXuqdMJ9T6u597BMWUOruaQPzicb1nVt/4xqx2/4xrHP2D6v5pdMbWklw+XoL0KeC088EKJe/8Aed95TOKXdfo870rqvVOouG/oWZgUkw67KfXXtH73oWbMh/8AYrWpY30mOssIaysFznkwGtA3Oe4/mta1WnHkntySquTfhOBxsq0VVZDHVuJ5LXNLH7f3fa7+cenxMzoPUVs5xiLkREdyaT4llt4a+si6ogObbu02nVrq7m/T3JdW6T0/quC/C6jX69VhDgASx5e3+bex1Zb76/3lT6F1jpGSzF6f0RkYLKi2iyCGhlX6MBjbP0j+Pp2K9k4eSXl0+sOx4IHht/8AIoSjqOKoWOIeMSqGSM+LgPFwyMJV0nH5ovOfUv6q1dHtuy8/GtpzC6yjEsyLmWn7O529jduMfTbc9ja/Wseuza8DSIjw4WZVg3veNzdjZ1c7mPgtE1EasP8AZdx8vzmpkhEULteEqSExzwdpafyj/ORVGQlSSSSSlJJJJKf/1/VUkkklKSSSSU+efXoWW9c6NaQDVa95YRrrQyx7939XeqbXOY4OYS1zdWuaYI+BC6T6x1V0fWv6uZDorpe7Mxw8/Q9e+pvoMf8A8f6dtbU3Uvq7W8ufQ37LaNSw/wA07+q7/BrQ5XmIAGMtPHw4eH1OP8R+H5MkhlwmzEG4bSszlk4oS/w2v076x2VkMy9R/pWj/wA+Vj/q61unNxzULQ4FrhIcCNuv8pcVfRdj2enew1v5g8EfvNd9F7f6qOwjZSPJqmnyuPIRKJ4b7axLTx/Fc+EGGWPuEaes8GSJ/r6ep2c3rJMsxtY/whGg/wCLYf8Aq3rIc9zrd7yXOJBLiZJU2sstfsraXOPYflWp0/oc2NfePUdIOwfQA8XuT7w8vHx/58mEQ5z4jOz8gO/y4cfl+9L/AB8jh/UH18fEqvYyWYzsikk8GLHe0L0hcr9Q8Wi3pN+WPfj5Gfl34mkNNTrXNre1v8r09zF1SysuTj4dPliIfSL0mDCMQnRv3Jyyy/vZDxFSSSSjZlJJJJKUkkkkpSSSSSn/0PVUkkklKSSSSU0+rdJwesYL8HOZvpfBBBLXse07q7qbG+6u2t30XLKw/qh6GTVfldY6lntxyDVTffFegj9MyllX2h2v+FXQpIi+inLzuk1217CwXU9mHRzf+LcsI9CY21kXkVNIAaR7/wCrP739hdiqb/8AlFv9VXMH3ij7f1/lL08Tn899w4o/eeHi6fNxf4Xterg/vtbD6PUxm0sDa+S0iXOj95Ucv6mDLfay7rHUjhZDi6/C9ZorcHfTo3ir1mYz2+x9LLF0aSq5OPiPHd9bbuL2+CPt8PBXp4Pk4f6vCixsejFx68bHYKqKWhlVbRAa1o2ta1FSSTF6kkkklKSSSSUpJJJJSkkkklP/2ThCSU0EIQAAAAAAUwAAAAEBAAAADwBBAGQAbwBiAGUAIABQAGgAbwB0AG8AcwBoAG8AcAAAABIAQQBkAG8AYgBlACAAUABoAG8AdABvAHMAaABvAHAAIABDAEMAAAABADhCSU0EBgAAAAAABwAGAAAAAQEA/+ERsGh0dHA6Ly9ucy5hZG9iZS5jb20veGFwLzEuMC8APD94cGFja2V0IGJlZ2luPSLvu78iIGlkPSJXNU0wTXBDZWhpSHpyZVN6TlRjemtjOWQiPz4gPHg6eG1wbWV0YSB4bWxuczp4PSJhZG9iZTpuczptZXRhLyIgeDp4bXB0az0iQWRvYmUgWE1QIENvcmUgNS41LWMwMTQgNzkuMTUxNDgxLCAyMDEzLzAzLzEzLTEyOjA5OjE1ICAgICAgICAiPiA8cmRmOlJERiB4bWxuczpyZGY9Imh0dHA6Ly93d3cudzMub3JnLzE5OTkvMDIvMjItcmRmLXN5bnRheC1ucyMiPiA8cmRmOkRlc2NyaXB0aW9uIHJkZjphYm91dD0iIiB4bWxuczp4bXA9Imh0dHA6Ly9ucy5hZG9iZS5jb20veGFwLzEuMC8iIHhtbG5zOmRjPSJodHRwOi8vcHVybC5vcmcvZGMvZWxlbWVudHMvMS4xLyIgeG1sbnM6cGhvdG9zaG9wPSJodHRwOi8vbnMuYWRvYmUuY29tL3Bob3Rvc2hvcC8xLjAvIiB4bWxuczp4bXBNTT0iaHR0cDovL25zLmFkb2JlLmNvbS94YXAvMS4wL21tLyIgeG1sbnM6c3RFdnQ9Imh0dHA6Ly9ucy5hZG9iZS5jb20veGFwLzEuMC9zVHlwZS9SZXNvdXJjZUV2ZW50IyIgeG1sbnM6c3RSZWY9Imh0dHA6Ly9ucy5hZG9iZS5jb20veGFwLzEuMC9zVHlwZS9SZXNvdXJjZVJlZiMiIHhtcDpDcmVhdG9yVG9vbD0iQWRvYmUgUGhvdG9zaG9wIENDIChXaW5kb3dzKSIgeG1wOkNyZWF0ZURhdGU9IjIwMjQtMDctMTBUMTI6Mzk6NDgrMDg6MDAiIHhtcDpNb2RpZnlEYXRlPSIyMDI0LTA3LTEwVDEzOjE2OjUwKzA4OjAwIiB4bXA6TWV0YWRhdGFEYXRlPSIyMDI0LTA3LTEwVDEzOjE2OjUwKzA4OjAwIiBkYzpmb3JtYXQ9ImltYWdlL2pwZWciIHBob3Rvc2hvcDpDb2xvck1vZGU9IjMiIHhtcE1NOkluc3RhbmNlSUQ9InhtcC5paWQ6OGI4NzdlMWUtOGQxZi1kYzQ1LTgzMjAtNGY4NmMyZmE2MjM0IiB4bXBNTTpEb2N1bWVudElEPSJ4bXAuZGlkOmJjM2U4ODVlLTk4ZDktODA0Ni1hMmY2LWU2NmUwN2YyMDc5YyIgeG1wTU06T3JpZ2luYWxEb2N1bWVudElEPSJ4bXAuZGlkOmJjM2U4ODVlLTk4ZDktODA0Ni1hMmY2LWU2NmUwN2YyMDc5YyI+IDx4bXBNTTpIaXN0b3J5PiA8cmRmOlNlcT4gPHJkZjpsaSBzdEV2dDphY3Rpb249ImNyZWF0ZWQiIHN0RXZ0Omluc3RhbmNlSUQ9InhtcC5paWQ6YmMzZTg4NWUtOThkOS04MDQ2LWEyZjYtZTY2ZTA3ZjIwNzljIiBzdEV2dDp3aGVuPSIyMDI0LTA3LTEwVDEyOjM5OjQ4KzA4OjAwIiBzdEV2dDpzb2Z0d2FyZUFnZW50PSJBZG9iZSBQaG90b3Nob3AgQ0MgKFdpbmRvd3MpIi8+IDxyZGY6bGkgc3RFdnQ6YWN0aW9uPSJjb252ZXJ0ZWQiIHN0RXZ0OnBhcmFtZXRlcnM9ImZyb20gaW1hZ2UvcG5nIHRvIGFwcGxpY2F0aW9uL3ZuZC5hZG9iZS5waG90b3Nob3AiLz4gPHJkZjpsaSBzdEV2dDphY3Rpb249InNhdmVkIiBzdEV2dDppbnN0YW5jZUlEPSJ4bXAuaWlkOjBmNWQyMDg2LWZjNzEtNjc0NS1iN2M5LTgzNmQ0Mjc3MGJmNiIgc3RFdnQ6d2hlbj0iMjAyNC0wNy0xMFQxMzoxNjozNiswODowMCIgc3RFdnQ6c29mdHdhcmVBZ2VudD0iQWRvYmUgUGhvdG9zaG9wIENDIChXaW5kb3dzKSIgc3RFdnQ6Y2hhbmdlZD0iLyIvPiA8cmRmOmxpIHN0RXZ0OmFjdGlvbj0ic2F2ZWQiIHN0RXZ0Omluc3RhbmNlSUQ9InhtcC5paWQ6NGVjMzA1OWMtZjJjYS01NjQ4LTliYjktOTZkOWJlODljYTNlIiBzdEV2dDp3aGVuPSIyMDI0LTA3LTEwVDEzOjE2OjUwKzA4OjAwIiBzdEV2dDpzb2Z0d2FyZUFnZW50PSJBZG9iZSBQaG90b3Nob3AgQ0MgKFdpbmRvd3MpIiBzdEV2dDpjaGFuZ2VkPSIvIi8+IDxyZGY6bGkgc3RFdnQ6YWN0aW9uPSJjb252ZXJ0ZWQiIHN0RXZ0OnBhcmFtZXRlcnM9ImZyb20gYXBwbGljYXRpb24vdm5kLmFkb2JlLnBob3Rvc2hvcCB0byBpbWFnZS9qcGVnIi8+IDxyZGY6bGkgc3RFdnQ6YWN0aW9uPSJkZXJpdmVkIiBzdEV2dDpwYXJhbWV0ZXJzPSJjb252ZXJ0ZWQgZnJvbSBhcHBsaWNhdGlvbi92bmQuYWRvYmUucGhvdG9zaG9wIHRvIGltYWdlL2pwZWciLz4gPHJkZjpsaSBzdEV2dDphY3Rpb249InNhdmVkIiBzdEV2dDppbnN0YW5jZUlEPSJ4bXAuaWlkOjhiODc3ZTFlLThkMWYtZGM0NS04MzIwLTRmODZjMmZhNjIzNCIgc3RFdnQ6d2hlbj0iMjAyNC0wNy0xMFQxMzoxNjo1MCswODowMCIgc3RFdnQ6c29mdHdhcmVBZ2VudD0iQWRvYmUgUGhvdG9zaG9wIENDIChXaW5kb3dzKSIgc3RFdnQ6Y2hhbmdlZD0iLyIvPiA8L3JkZjpTZXE+IDwveG1wTU06SGlzdG9yeT4gPHhtcE1NOkRlcml2ZWRGcm9tIHN0UmVmOmluc3RhbmNlSUQ9InhtcC5paWQ6NGVjMzA1OWMtZjJjYS01NjQ4LTliYjktOTZkOWJlODljYTNlIiBzdFJlZjpkb2N1bWVudElEPSJ4bXAuZGlkOmJjM2U4ODVlLTk4ZDktODA0Ni1hMmY2LWU2NmUwN2YyMDc5YyIgc3RSZWY6b3JpZ2luYWxEb2N1bWVudElEPSJ4bXAuZGlkOmJjM2U4ODVlLTk4ZDktODA0Ni1hMmY2LWU2NmUwN2YyMDc5YyIvPiA8L3JkZjpEZXNjcmlwdGlvbj4gPC9yZGY6UkRGPiA8L3g6eG1wbWV0YT4gICAgICAgICAgICAgICAgICAgICAgICAgICAgICAgICAgICAgICAgICAgICAgICAgICAgICAgICAgICAgICAgICAgICAgICAgICAgICAgICAgICAgICAgICAgICAgICAgICAgICAgICAgICAgICAgICAgICAgICAgICAgICAgICAgICAgICAgICAgICAgICAgICAgICAgICAgICAgICAgICAgICAgICAgICAgICAgICAgICAgICAgICAgICAgICAgICAgICAgICAgICAgICAgICAgICAgICAgICAgICAgICAgICAgICAgICAgICAgICAgICAgICAgICAgICAgICAgICAgICAgICAgICAgICAgICAgICAgICAgICAgICAgICAgICAgICAgICAgICAgICAgICAgICAgICAgICAgICAgICAgICAgICAgICAgICAgICAgICAgICAgICAgICAgICAgICAgICAgICAgICAgICAgICAgICAgICAgICAgICAgICAgICAgICAgICAgICAgICAgICAgICAgICAgICAgICAgICAgICAgICAgICAgICAgICAgICAgICAgICAgICAgICAgICAgICAgICAgICAgICAgICAgICAgICAgICAgICAgICAgICAgICAgICAgICAgICAgICAgICAgICAgICAgICAgICAgICAgICAgICAgICAgICAgICAgICAgICAgICAgICAgICAgICAgICAgICAgICAgICAgICAgICAgICAgICAgICAgICAgICAgICAgICAgICAgICAgICAgICAgICAgICAgICAgICAgICAgICAgICAgICAgICAgICAgICAgICAgICAgICAgICAgICAgICAgICAgICAgICAgICAgICAgICAgICAgICAgICAgICAgICAgICAgICAgICAgICAgICAgICAgICAgICAgICAgICAgICAgICAgICAgICAgICAgICAgICAgICAgICAgICAgICAgICAgICAgICAgICAgICAgICAgICAgICAgICAgICAgICAgICAgICAgICAgICAgICAgICAgICAgICAgICAgICAgICAgICAgICAgICAgICAgICAgICAgICAgICAgICAgICAgICAgICAgICAgICAgICAgICAgICAgICAgICAgICAgICAgICAgICAgICAgICAgICAgICAgICAgICAgICAgICAgICAgICAgICAgICAgICAgICAgICAgICAgICAgICAgICAgICAgICAgICAgICAgICAgICAgICAgICAgICAgICAgICAgICAgICAgICAgICAgICAgICAgICAgICAgICAgICAgICAgICAgICAgICAgICAgICAgICAgICAgICAgICAgICAgICAgICAgICAgICAgICAgICAgICAgICAgICAgICAgICAgICAgICAgICAgICAgICAgICAgICAgICAgICAgICAgICAgICAgICAgICAgICAgICAgICAgICAgICAgICAgICAgICAgICAgICAgICAgICAgICAgICAgICAgICAgICAgICAgICAgICAgICAgICAgICAgICAgICAgICAgICAgICAgICAgICAgICAgICAgICAgICAgICAgICAgICAgICAgICAgICAgICAgICAgICAgICAgICAgICAgICAgICAgICAgICAgICAgICAgICAgICAgICAgICAgICAgICAgICAgICAgICAgICAgICAgICAgICAgICAgICAgICAgICAgICAgICAgICAgICAgICAgICAgICAgICAgICAgICAgICAgICAgICAgICAgICAgICAgICAgICAgICAgICAgICAgICAgICAgICAgICAgICAgICAgICAgICAgICAgICAgICAgICAgICAgICAgICAgICAgICAgICAgICAgICAgICAgICAgICAgICAgICAgICAgICAgICAgICAgICAgICAgICAgICAgICAgICAgICAgICAgICAgICAgICAgICAgICAgICAgICAgICAgICAgICAgICAgICAgICAgICAgICAgICAgICAgICAgICAgICAgICAgICAgICAgICAgICAgICAgICAgICAgICAgICAgICAgICAgICAgICAgICAgICAgICAgICAgICAgICAgICAgICAgICAgICAgICAgICAgICAgICAgICAgICAgICAgICAgICAgICAgICAgICAgICAgICAgICAgICAgICAgICAgICAgICAgICAgICAgICAgICAgICAgICAgICAgICAgICAgICAgICAgICAgICAgICAgICAgICAgICAgICAgICAgICAgICAgICAgICAgICAgICAgICAgICAgICAgICAgICAgICAgICAgICAgICAgICAgICAgICAgICAgICAgICAgICAgICAgICAgICAgICAgICAgICAgICAgICAgICAgICAgICAgICAgICAgICAgICAgICAgICAgICAgICAgICAgICAgICAgICAgICAgICAgICAgICAgICAgICAgICAgICAgICAgICAgICAgICAgICAgICAgICAgICAgICAgICAgICAgICAgICAgICAgICAgICAgICAgICAgICAgICAgICAgICAgICAgICAgICAgICAgICAgICAgICAgICAgICAgICAgICAgICAgICAgICAgICAgICAgICAgICAgICAgICAgICAgICAgICAgICAgICAgICAgICAgICA8P3hwYWNrZXQgZW5kPSJ3Ij8+/+4ADkFkb2JlAGRAAAAAAf/bAIQAAgICAgICAgICAgMCAgIDBAMCAgMEBQQEBAQEBQYFBQUFBQUGBgcHCAcHBgkJCgoJCQwMDAwMDAwMDAwMDAwMDAEDAwMFBAUJBgYJDQoJCg0PDg4ODg8PDAwMDAwPDwwMDAwMDA8MDAwMDAwMDAwMDAwMDAwMDAwMDAwMDAwMDAwM/8AAEQgAvQDGAwERAAIRAQMRAf/dAAQAGf/EAaIAAAAHAQEBAQEAAAAAAAAAAAQFAwIGAQAHCAkKCwEAAgIDAQEBAQEAAAAAAAAAAQACAwQFBgcICQoLEAACAQMDAgQCBgcDBAIGAnMBAgMRBAAFIRIxQVEGE2EicYEUMpGhBxWxQiPBUtHhMxZi8CRygvElQzRTkqKyY3PCNUQnk6OzNhdUZHTD0uIIJoMJChgZhJRFRqS0VtNVKBry4/PE1OT0ZXWFlaW1xdXl9WZ2hpamtsbW5vY3R1dnd4eXp7fH1+f3OEhYaHiImKi4yNjo+Ck5SVlpeYmZqbnJ2en5KjpKWmp6ipqqusra6voRAAICAQIDBQUEBQYECAMDbQEAAhEDBCESMUEFURNhIgZxgZEyobHwFMHR4SNCFVJicvEzJDRDghaSUyWiY7LCB3PSNeJEgxdUkwgJChgZJjZFGidkdFU38qOzwygp0+PzhJSktMTU5PRldYWVpbXF1eX1RlZmdoaWprbG1ub2R1dnd4eXp7fH1+f3OEhYaHiImKi4yNjo+DlJWWl5iZmpucnZ6fkqOkpaanqKmqq6ytrq+v/aAAwDAQACEQMRAD8A+/mKuxV2KuxV2KuxV2KuxV2KuxV2KuxV2KvC/wDnIH8z9d/KfybpfmPy/Z2F9eXutQ6dNDqCSvEIpLe5mJURSxENyhFCTSlds6v2Q7Cw9sauWHNKUQIGXpq7EojqDt6i6D2i7Vy9m6eOXGASZAb3yonoR3Pk23/5zX88KV+teUtCmX9oRG5jJ+RaWSmegz/4GGiP05sg9/Cf0B5CPtzqeuOH2/rLM9N/5zetWKrrH5eyxD9uaz1FZPujkgT/AInmsz/8C6X+T1APvjX2iR+5zcXt2P48Pyl+gj9L1nQf+ctfyf1j00vr/UfLcr0HHUbNmUN/r2pnAHuafRnPav8A4HvauD6YxyD+jL9EuF3Gn9sNBl+oyh7x/wATb3rQPNflnzVb/W/LWv6frsAFXeyuI5ivs4QkqfYgZyer7P1Gjlw58coH+kCPl3vQ6fV4dQLxTEh5G2QZhuQ7FXYq7FXYq7FXYq//0Pv5irsVdirsVdirsVdirsVdirsVdirsVdirxb89vysvvzd8oaf5b0/VoNGnsdXh1M3NxG0iMsVvcQ8KIQQSZga+2dN7K9vQ7G1Us04GYMDGga5mJv8A2LpO3+yZdpYBijIRIkJb+4j9L4+uf+cJvPaKxs/N2gzuPsrMLqIH5lYpKfdnosP+Cdoz9WLIPdwn9IeNl7Dan+HJA/MfoLBtV/5xK/OfTVd7bS9O1sJvSxv4wSB4C59AnNpg/wCCF2TlPqlKH9aJ/wB7xOBl9j9fDlGMvcR+mnjfmL8ufP8A5TWSTzH5O1fSbeL7d7PayfV/onUGM/Q2dHo+29FrNsOaEj3Ai/8AS8/sdNqezNTp/wC8xyiO+jXz5MSs7+80+4ju7C7msbuE1hureRopEPiroQR9BzYZMcMkTGYBB6EWHEhKUDcSQe8PpPyN/wA5Y/mf5T9K21i5i866WlA0OqVF0F/yLtPjJ95A+cV2p7A9nay5YwcMv6P0/wClO3+l4XptB7W63T7TPiR/pc/9N+u33P8Alt/zkZ+XH5jm3sYNR/w95hnoo0HVCsTyOf2YJa+nLXsAeX+SM8t7a9jtf2ZcjHjxj+KO/wDphzj93m932Z7R6TXVEHgn/Nl+g8j9/k96zlHfuxV2KuxV2Kv/0fv5irsVdirsVdirsVdirsVdirsVdirsVdirsVdirsVaIBBBFQdiD3xV5B5y/Ib8qvPCSnVvKVpZ30tT+l9MUWVyGP7RaEKsh/4yKwzoezvartLQEeHlJiP4ZeqP28vgQ6fWdg6LVD14wD3x9J+zn8bfGX5if84Z+ZtGjm1H8vtWXzTaJVjo14Et75VFTRHqIpT/AMAfAHPRuyP+CPgzEQ1cPDP84bx+I+qP+y97xnaHsZlxji08uMdx2l+o/Y+NdV0zVdB1C40vWtPudJ1O0bjc2N3E0MyH/KRwCM9EwanHngJ45CUTyINh4/LgnikYzBiR0OxfUP5P/wDOV3mryTLZ6L5zlm82eU1Kx+tI3PUbSMCgMUrEeoq/yOfZWXpnD+0PsNptcDk01Ysv+wl7x0PmPiC9R2P7U59KRDNc8f8Ash7j19x+Yfpl5U83eXfO+iWnmHyvqkOraVeD4J4jujD7UciGjI613VgCM8Y12gz6HKcWeJjIfiweo8w+l6XV4tVjGTFLiifxv3FkmYbkOxV2Kv8A/9L7+Yq7FXYq7FXYq7FXYq7FXYq7FXYq7FXYq8S/5yM1fVdB/Jrzjq2i6ldaRqdp+jvq2o2UzwTx89RtkbhJGVYclYqaHcEjOo9jNPi1Ha2HHliJxPFYkAQfRI8jtz3dF7S5p4ez8k8cjGQ4aINH6h1D8yrP89PzdsXWSD8w9bdl6C4uWuV+lZuYP3Z7hl9l+ysgo6fH8Bw/dT5dDt3XwNjNP4m/vt6VoP8Azl3+bukso1K703zNED8S39mkT8fANaehv7kHNJq/+B52Vm+gSxn+jIn/AHfE7TT+2Gvx/UYz94r/AHNPovyb/wA5neTNVeC185aJd+VrhyFfULc/XbMf5TcVWZR7BH+ecZ2l/wADXV4QZaaYyDuPpl+mJ+Yel0Xttp8lDPEwPePVH9f2F9ZaB5l8v+arBNU8t6zZ63p8mwurOZZVB/lbiSVYdwaEZ5/q9Fn0k/DzQMJdxFPXafVYtRHjxSEh3g2neYre84/MT8qPI/5o6eLHzbpC3E8KFLHWIKRXtrU1/czUJAruVYFT3U5t+ye3NX2XPiwToHnE7xl7x+nn5uv7Q7L0+ujw5Y2eh/iHuP4D8q/zq/5x983/AJQXEmosG13yZNLwsvMcCf3XI0SO7jFfSc1oD9luxr8I9q9n/azT9qx4foygbxPXzieo+0fa+Z9r9gZtAeL6sfSX/Fd33Fg/5W/m/wCavym8wR615euvUtJiq6xocxP1a9hB+y4H2WFTxcbqfEVBz+2uxtP2rh8PMNx9MhzifLy7xyP2uJ2Z2lm0GTjxnbqOh/HQv2P/ACx/M7yz+a/li28zeW7j4SfS1PTJSPrFncAVaKVR96kbMNxngfa/ZGfszOcOUe49JDvH42fWezu0MWuxDJj+I6g9xeiZq3Odir//0/v5irsVdirsVdirsVdirsVdirsVdirsVdirGPOXlHRfPflvUvKnmGKSbR9V9H63HDIYnPoTJOlHXcUeMHM7s7tDL2fqI6jCQJxurF8wYnb3Fxdbo8erxHFk+mVX05G/vD51v/8AnDb8pbtCtrda9pj/ALLwXkT/AHiaCTbOwxf8EftOB9Qxy98T+gh5zJ7GaGXIzHuI/SC8m8y/84Q3qLLN5Q88RXLUJh0/V7YxfIG4gL9f+MQzf6L/AIJ0SQNRhI84G/8AYmv906nU+w8hvhy35SFfaP1Plbz1+Tn5k/l1zl8z+WbiHTlNBrVtS5sz4Vmi5BK9g/E+2d12X7SaDtLbDkBl/NPpl8jz+Fh5XXdi6vRb5YGu8bx+Y5fGmKeVPO/mjyPqkeseVNbudFv0pzeB/glUdEmiYFJF/wAlwRmdr+z9Nr8fh6iAnHz6e48wfMOLpNZm0k+PFIxPl+kcj8X6Pfkr/wA5WaH53ks/LXngQeW/NMvGK01ANxsb6Q7AAt/cyMeiseJP2WqQueN+0nsLl0IObS3kxcyP4oj/AHw8+Y6jq+kdi+1WPVEY89Qn0P8ADL9R8v7H2Bnnz16D1DT7HVbK703U7SG/0++iaC8srhBJFLG4oyOjAggjscniyyxSE4EiQ3BHMMZwjOJjIWDzD8mv+cm/+cbpvywmfzn5MimuvId7LS8tCTJJpMzn4UZty0Lk0RjuD8LGvEt7L7K+1n8oDwM5rKOR/nj/AIrvHxHWvN+3uwPyh8XFvjPT+b+zu+ReF/k/+b2u/lF5vs/MWlSPPp8rJD5h0XlSO9tOVWQg7B13KN+yfYsDvu3OycXamnOKf1c4y/my/V3jr8nU9l9oZNBmGSPLqO8fjk/cTyp5o0Xzr5d0jzT5dvBfaNrdutxZXA2NDsyOv7LIwKsp6EEZ4Fq9Jk0mWWHIKlE0fx3Ho+tafUQ1GMZIG4yDIcxm5//U+/mKuxV2KuxV2KuxV2KuxV2KuxV2KuxV2KuxV2KuxVZJHHNG8UqLLFKpSSNwGVlYUIIOxBGEEg2OaCARRfHn5w/84keV/N0V3rf5frB5R8zUaRtNUFdNvHO/EoK/V2PYxjj4p3zvuwPbvUaQjHqryY+/+OPx/i+O/n0eS7W9lMOoBngqE+7+E/q+G3k/MPzJoeveT9ZvPL/mbS59G1iwbjc2VwtGFejKRUMrDdWUkEbg57DpNdi1eMZcMhKJ5Efjn5PnWo0mTTzMMgMZDo+7/wDnGD/nJx5Z9O/LT8w9QMhmK23lTzNcPVuR2S0uXY716Rud60U9iPMvbH2SFS1mljXWcB9so/74fEPb+zntAdtPnPlGR/3J/Qfg/RPPLHvEFqWnWGsafe6VqlpFf6bqML299ZTqHjlikUq6Mp6gg0yeLLLFITgakDYI6FjOEZxMZCweb8Nf+ckPybvfyT88yWFuJJ/KGvepd+UtQkPImJSPUtpG7yQFgCe6lW70HuHs928O0tPxHbJHaQ8+/wBx/WHzDtfso6LNQ+g7x/V8HtX/ADhH+d3+G/Ncn5Xa9d00LzhMH8vSSMeNtqtKCJR0AuVHH/XCU+0c0ftr2SNRh/NQHrh9XnH/AI7919ztPZnXnDk8CX0y5eUv2/fT9bc8oe9f/9X7+Yq7FXYq7FXYq7FXYq7FXYq7FXYq7FXYq8E/5yemkt/yN87zQyNFIn6M4yISrCup2g2IzrPYYA9sYAdx6/8AcSef9qSR2blr+j/uovyp0zz7500WRZNI826zpjqQQba+niG3iFcA/I573n7M0ecVkxQl74g/ofJsWt1GI3DJKPuJ/W948p/85d/mp5fMMOsS2Xm6yQgOl/CIrjgOyz2/Df3dXzk+0P8AgfdmamzjEsUv6Jsf6WV/YQ9Bo/a/XYdpkZB5ij8xX22+3/yy/wCcivy8/MtrbTre9Pl/zLPRV8v6iVR5HPa3lHwS9NgKN/k55f237H67su5kceMfxR6f1hzj93m912X7R6XXVEHhmf4T+g8j9/k96zlHfvCvz2/I7Qfzm8tvbyrHp/m3TInby15gA+JH6+hORu0LnqOqn4l3qD0Ps97QZeyc1jfHL6o/pH9IfbyLqO1+yMevx0dpj6T+g+T8Sdf03VvKut6n5e12zl0zWdGuXtr+zlFGjkjNDv3B6gjYihGxz3TT6zHqMccmM3GQsF8sy6aeKZhIUQd366f84lfngfzR8nyeXNeuzN508mxRxXkz/avLE/BBckk1Z1pwkPjxY/bzxn2v7EGg1Hi4hWLJy/oy6j3dR8uj6R7O9pnVYeCZ9cPtHQ/oP7X1vnIPRPBv+cj/AMpoPzf/ACt13QYrdZPMemRtqflKeg5rfQIxWINQ0Wdaxt8weoGbnsHtM6DVRnfpO0vcf1c3W9q6IavAY/xDce/9vJ/P9bare6Vf293bTSWOo6bcJNbyrVZIZoWDKwruGVhX557NKcZxIO4I+x85EDE2NiH7tr/zkLZv/wA4wSfnukaPeQ6HWazUVRNZMw0/0mAFQn1xh1H2DXPHv5GP8pflOnFz/ofV8+H7X0P+Uf8AAvzHWv8AZcvvf//W+/mKuxV2KuxV2KuxV2KuxV2KuxV2KuxV2KpL5h8u6L5r0e80DzFp8eq6Pf8Ap/XLCavCT0pFlSvEg7OgPXtmTpNZl0mUZcMjGcbojpYo/YWnUafHqMZx5BxRPMfa8M1z/nFP8lNZhdIPLdxoNw4oLzTb24R1+STPNF/wmdPpvbvtbCd8gmO6UR94Al9ros/sr2fkG0DE94J/TY+x8v8A5hf84X+ZtHt5dR/L7Wl80xRgs+iXqrbXnEb/ALuTl6Uh9jw9q52vZX/BHw5iIauHhn+cN4/Ecx/snmdf7GZcY4tPLj8jsfnyP2PirUYNU8vapc6bqlnc6PrGmTcLmznRoZ4ZVoRVTRlPQj789CxarHqMYnAiUZDYjcEPIZME8UzGQMZD4EPvr/nHH/nKae+vbDyB+ZeoCWW5KweXvNtw1HaQmiW94x2Jbosh3rQNWvLPK/a72NhGMtVo41W8oD7ZR/TH5dz3ns97SSkRg1Ju9oyP3S/Qfn3v0Izyx7x+c3/Oef5Qx3mhWn5xaHa01HRDFYecBGP72ykYJb3DADdonYIT14sOyZ33sX2wcczpZn0y3j5HqPjz9/veU9pOzhOIzxG42l7uh+H45Pz7/I7817j8qvzO8r+blnZNOgultfMMS7+rp1wQlypXepVfjUfzKudr2zpI6/SzxHmRcf6w5fq9zzXZuc6TPHIOXX3Hm/oZiliniinglSaCZFkhmjYMjowqrKw2II3BGeGkEGi+ng2qYEv58P8AnMnyWPy5/P7zjZ28AttK8zmPzHo6KvFfT1DkZ+KjYBblJlFOwz1b2f1/j6OFnePpPw5fZTwvaul8PUSrkd/n+22Tflp+Yb3v/OHv/OSHkC5lLDQrzy5relgmv7u+1ixguFHgFeBD83OUazEB2np8w6iQPwia+9t08ydFlxnoQfmR+p//1/vPHqXJ3V4TGUNJIj9tD7jvXsRlxxdxRaYRzRyj4GBP8vfKjEhKS+Z9a/w9oWoasIxK9qgMUbGil2IVanwBNTnN+1vbp7E7Lza2MeOWOOw75EgC/Lez5Od2bo/zeojiugTv7mD/AJc+fL/zXcahZajFAZraMTw3FuCq8SwUqwLNvuKHPPf+Bd/wQ9b7R5s2n1kIiUIiYlEGIq6MSCTvvse67d17QdiYtDGM8RNE0Qd/i9WZlUVYhR4nPZaeXQM1/GgPD4qCpc7KMsjjJRataXBuYRL6bRqx+AsKch/MB1oe1cE48JpQbROQS7FXYq7FVrEhWIXkQCQo7nw3xCpbDqaSVLIVAPFh+0pHUMD0Iy6WKkWmKSRyCqMG9sqIISxrzj5jXytoVxqvpLNKGWK3jc0T1H6Fj4AAnOQ9t/ac+zvZc9ZGHHOxGI6cUuV+Q3Pny627Lsns/wDPagYyaHMnyCS/l75xuPN1jfPeQRRXWnyIkkkFfTcSAlaAkkEcTUVzQ/8AAz9uNR7T6XKdTjEMmKQBMbEZCVkUCSQRRvc9D1czt7smGgyR4JExkDz5imEfnh+RHlX839Ena4jh0jzhaQkaH5nVaOrKCVhuOO8kRPUGpXqvcH2/2f8AaLUdlZBwkyxk+qP6R3H7+rxHa3Y2LXw32mOUv0HvH4D8U/M+k6z5O1/VPLPmKzfTtZ0edoL21fsw3DKejKwIZWGxBBGe46XtDHqcUcuM3GQsPl+fSTwTMJiiH6wf84e/nY/5keTp/KWv3xuvN3ktEQzysWlvNOY8YZmJ3Zoz+7c/6hJqxzx72z7Gjo9R42IVjydOkZdR7jzHx7n0X2b7SOpw+HM3OH2x6H4cvk+pvNXlzTfN/lrX/KusRCbS/MWn3GnXyUBPp3EbRsVr0K1qD2O+clp80sGSOSPOJBHwegy4xkgYS5EU/mE8wwXnlnX9c8uakBHqPl/ULnTdQj3+Ge0laGQfQynPaMWrGSAmORAPzfOp6cwkYnoaf0Ff84j+d38+/wDOPn5c6tPIZL3TbFtEviTVuelyNaIWPctFGjEnxzyjt3AMOtyAcib/ANNv973XZmQz08L5gV8tn0hmoc9+PP8Az9J0RLPVvyi82xgepf2mq6Rdt342skFxCP8Ap4kzsPZfUcMckPMH8fJ0HbWKzGXvD83PJvmybTPLH5s6Wr/uPMnlm0tJYyduUOv6TdqwHiPRI+ROdHmkJTxn+bIn/YyH6XU441GQ7x+kF//Q+995ZJdcXB9K4jFIpwK/Qw7j2yyGQx9yCEjaVoJBFdIbaUmiOf7tj/kP038DQ5kAcQsbot8Qf8/D/wA5b78rv+cfpbPSvrqeZfO+r2mm6FqFq3ppbm1lS9me4cENxMcJUBerEV+GuYOs0OHV45Yc0RPHIUYnkW7DnyYJieMmMhyI6Pgb/n3x/wA5Qea7n8+LTyl5+uL7Xl8+adPpGizxMqw2d4HjuVklhQKpV1hKch8Q26jNV2T7Mdndk8R0mEYzLmdySByFknZydZ2nqdZXjT4q5cgPkH7t3F0OY9V6ySf3cSgs7U7Ko3OdFGHc4BKKttPacrNepxiBrFZnep7NJTY+y9PH2hPLw7R+f6lAtPMx2TsVdirsVdirsVS68sBOfXgIiugKcj9lwP2Xp+B6j8Mtx5K2PJBCTrPwlEUoa1ue0T7V/wBRujfQcvMbFjcIt+bf/PzT89dV/Lr8vfIXk/y3Jd2fmzzRrJ1aLVYeKwx2OmxvFLG5PVpJJ0oKEUBrmq7R7K0vaOI4NTAZMZ6Hv6EdQR0IcnS6vLpZjJikYyHUPGf+faf/ADktr/mfz/5z/Lfzq9/rOteZ9Lh1LQNV5J9WtY9HE5nikiRUVWk+sgh1HxEUboDmL2R7O6DsiEoaPGMYkblVkk8hZN8unc2aztHPrJCWaXERy6V8A/Yue6USBZGaSZ/sQICzn5KO34Zvow225OES/Pz/AJzw/Kh5/Kmn/nHZQrBqGgyQaZ5kgQD4rG4k4W80jDq8czhPk4FfhGdp7Idr+HkOlJ9MrI/rDn8CN/g8x7RdnjJEZxzGx93T7Xwb/wA47fmgfy6/OTyN5ilujb6Y+oJp2unlRDZX3+jzFxXcR8xJTxUHOr7dwjWaPJj5mrHvG4/V8Xn+y5/ltTCfS6PuO37X9DueKvpL+Z//AJzJgi8vf85OfnBp0I4JJrCX5Xp8eo2sF65+lpic9F7J1N6XHfQV8tnk9dg/fy979Pv+fYetyan+Rvm2wlk9QaT50uhAp/YjnsLJ+I9uYY/TnNe0ZEtRGXfH9Jdx2SKxEef6A/SLOfdo+Sf+ctf+cYrj/nJry/5Q0i084ReTrnyrqFxeC6lsWvlmS4iEbJxWeAqQVU1qc2PZ2v8Aykiauw4mr0vjgC6p8QQf8+qdfgivYl/PGypeQiF/9wEnQSxy/wDLf4oM2x9ogf4Pt/Y4X8lf0vsf/9H7+YqoTvAEZJ+Lo4o0bDlUeBGSiDeyvkD/AJys/wCcb/J3/OQvkS20jXPNGqeSG8pzzap5f1ixb1I4bmWEwP68DVMsbIxUxqR7Zk+qXPcseT88v+cBf+ca/LWoeerr8y9W/Mi41rWvyy12+stB0bSrB9Psrww84oNQlkmjT1FdHZo0C9OrHHhPPYoftlYGGyqvogl/7y56yN/rMdzkMnFLqkbJ8kscoqjBh3plBFMl+BUPdXdrY2095e3MVnZ2yGS5up3WOONF3LO7EBQO5JxV8geeP+c+P+cWPIl5Jp17+ZcOvX8JZZbfy/bXGpqrIaFTPAhhrX/LyQiUWwvQ/wDn5b/zinrFzHbXPmfWfL5lfgk2paRciPc0BZ7cThR7mlO+HgK2+yfJH5ieRfzJ0lNd8hebdL826S1K3mmXKThCf2ZFU8kb2YA5EiksywK0SFFSQAOpOKpTe3VtMjW/opdg/aV1DJ+OW44yBsbIL4H/AOczP+cXPLn53+WLTzbq35h3XkDXvy+sboaFqMqC60r0pXWeWO+gKmSRSYgQQarStD0y8jiO3NiNnz5/z7l/IPQbLj+eE/nqXVvMr6dPoq+VrG2NnaWwfgk08rMiGSSRUBBVVAVgd64OEjfml+v1j9Rt1KQRC3LGrsTVmPizmpJ+ZyrJxS5m0hhX5xeWLfzn+VP5ieWLmMSrrPl7UIYK/sziB3gkHukqqw9xlmhznBnhMdJD9rTqcYyYpRPUF/LP+nP8vPVfzXm8R+Xf1OflBr8nmv8AKf8ALHzPOxe48w+VNG1G4ZjU+pc2UMr1PjyY55RrICGacRyEj973OCXFjiT1A+5ONT8geRNbvp9T1nyVoOr6lc8frOoXum2txPJwUIvOSSNmbiqhRU7AAZXHNOIoSIHvZmETuQE20bQNC8uWslj5e0Sw0GyllM8tnp1tFaxNKyqpkKRKqliqgVpWgHhkZTlI2TaREDkm+RS7FXYq/wD/0vvfcXQjqkfxSdz2GWRhfNCRfWDPIUt0e9lrR/T3VT/lOfhH319syOGhvsEWwHzJqOoWGrTQ3KRXEEMUbfUnXlERJ9rr1PUVzZaXDDJjBFgm9+rTORBRWlalZXcJjtYv3afHJptAJoyP24XFC4Hh1zHzaeWM2dvPofeOn3MhK2TQ3cixo5BvLZxWO6i3an+WmxNPb7sxyBdcj3MwVVi12vradf8AoTJ+2BzXbs6GhH4HGhHacbXnyYv5x/Mu1/LHyrrfnPz3JBZeWfLls11qmqxyDZF2CrG5VmdzRVUEkk0yBw4z9Mq8iP1LZ6v51f8AnKL/AJzC/ND/AJyN1G5jWe68p/lfAxGk+SrWYos0YO09+UI9aRutG+Ff2R1JrjGk2+LsKHYqz78uPzR8/flJ5ktPNf5e+Z73yzrNo6s0lrIRFOqmvpXEJ+CWM9CrgjEi1f0W/wDOJv8AzmRa/wDOSPlW4tX0qHTPzL8txp/ijREkWOCSNqBb215szGJm2Zdyp67EYYYYHeUqUyL6zEeq3b+rqN6scI3Fpb1A/wBlI29PkBlo8OP0iz3n9S7nmq/XYqmO0jN0y7Uj2jU+7nb7qnEwreRr8dy2k17dRKk0t1JC0aVS4uZV5wpXrHDGa828a/T4ZZGBnsBz6dT5nuDElgd5riIVi0e1XT41cSG6CqJnbxPEAKPYZs8OjEfr38ujUZ9z12l3bxRtdQNIhRSbmJeQFRU80FWWntUfLNN6ZHY/BvR1tdRSxNG/C6tJVKONnUqwoQRuCCO2Vzxm+4sgXhi/84h/84yMAy/kv5aIPQi3P/NWW/yjqf55aPyuL+aHvmiaJpPlvRtL8v6Dp8OlaJolpDY6TptuvGKC3gQRxRoOwVQAMxJSMiSdyW+IERQTTIpdirsVdirsVf/T+8o0a2LH1pZ7iIH4IJH+EfOgBb/ZE5f456AD8fjkx4U1REjVUjRY0XZUUAAfIDKSSdyyY9r/AJastei/eE292i8YrtBU0BqFYdxXMnTauWA7bjuYSgJPEtU0bVfL10huFaIq1ba8jPwsR3VvH2OdDhz49RHb4hx5RMSzPQ9ZF1G1y1EdWVdViAooLbLcKOwPRvvzV6rTcB4f9L/xP6m2Mr3ZVNawzNzZSkw+zPGSjj/ZD+OYMcko8uTMh+IP/P0X85Lq/wDNnl38jNLv5m07y5DDr3m4+ptNfXKEWkLKpC8YYiXpT7T17YTLi8lflxcarC9p6MKkSOgRgRsopvTAqQ4FdirsVer/AJH/AJrav+Sn5o+U/wAxdJkkpot2q6vZo5QXWnzfu7qBqEbNGTSvRgD2wq/q602Wx1zTdN1i2vZNT0vVbWC9013I4PBcRrLExCUDEqw3Ncl4x6ClpV1C5jgjaH1Pq8UcZkupV29OEbUXwZjsMlhgZG6s3t5n9iCXld7eXeuXkUUELFAfTsLGME8V7UA6k9zm+xYo4I2T7y0EmRek+XfIiW7Q32s0lnSjR2I3RSOhc/tH26fPNVqu0jK44+Xe2wxVuXpealuS+40y0uHMoVre4PW4hPBj/rdm+kHLY5pRFcx5oIRFrbLaxemsjy1JZpJDUkn7gPkBTITlxG1ARGRS7FXYq7FXYq7FX//U+/mKuxV2KoW9srbULaS0u4VmglFGRv1g9iOxyePJLHLiiaKCLeLT6VL5X8xQQSEyadfkxLMdg0UnwsD7qSM33jDU4CR9Ud/iHH4eGTPdNZnt4UmPxwsYJmPjExQn8M1GUDi267/NuHJ/Kh/zkz5rufO//OQf5x+ZLp2drrzVqFrbhv2ILGQ2kSivQcYgRgMeE13K8OwK7FXYq7FWiAQQRUEUIxV/UP8A84UeaZfNv/OLf5O31zLJNe6dow0m9llFGZ7CV4AfcFVFD4YyiY/FbeweYpZrhILO3DST6rdO3pr1ZIm9KJR7VBObbRxESZHlEffuWqe/xejeWPLNvoNsHcLLqMy/6Rcfy/5CeAH45rdZqznlt9IbYQ4WVZhs3Yq7FXYq7FXYq7FXYq7FXYq//9X7+Yq7FXYq7FWO+Z9KTVdNK0Hr2kiz279wUILD6RUZlaTP4U/I7MJxsJJagyQXxQ09a5uTGfm5AP0nJzPDKN9AEB/LT/zlB5D1XyJ+eX5m6dqFu8Yn1qfU7ctUl7bUWNxFOKgfAxZlr0DKVyepjUz57/NY8nz5mOl2KuxV2Koqysp9QuI7a3Xk8jKtSaAcjQb+JOwHUnYVOEC1f1D/APOH/knUfIH/ADj9+Xvl7VrWSw1FNPS4vbCU1aCW4rK0Z60K86EdjUZfqhw8MeoDGPV9DaBpqXOo2uoSqGGm28sMQPaVp5AT9AH4458vDAxH8RB+FBMY72z/ADXtjsVdirsVdirsVdirsVdirsVdir//1vvqtzA7cVkBPY9j8jkjEhVfIqhL++tdNs7i/vZRDa2qGSaU9gPbuT2zC7R7Rwdn6aep1EuHHjFyPcPxyHUtuDBPPMY4C5E0Ej8u+b9F80fWRpcsnq2tDNBMnB+LdGAqQRnO+y3tx2Z7ScY0cpcWOrjIcMqPKQ52Pjt16Od2h2Tn0NeKBR5Ebo3XL76paMsfxXExCQRjqWbZR9/4Z2mGHHLfl1dVI0Entbf6tbw26nl6SgM3ie5+k5ZORnInvQBT5S/5yd/5xS8r/wDOQukRTrdt5a886PHIuh+Z7ZVZwsgq1tcIdpYJDuyN/rLQ5fDKDEQn8D3frCCOofhL+a//ADid+dP5QXTJ5t8i3t9pKrSHzZ5Wik1Oxc/zTQD99AKdduPhTBLBICxuO8b/ANiiQfNUkdlGG56vZwOGZfq1x6sM4K7fFG0Z4/flNJWwJaTyGI6vp8Eu9ElmO9ATsURh0HjiEs/8j/lt5q/MK5jsvI/lHzB56vy4V4NKs2itIzUAia+nAjQGuxofllkMZnyBP470E0/XX/nFv/n3tfeWdX0vz/8Ang9i95pEy32gfl/p5aWxtLhaMlxdzPVrmWMiqA/Ap3FaAC0GOLf6pdAOQ9/exNl+t0MUccMSQBfRVR6XHcU9sxp8RJJ5sgs024Gn6nNbSfDBqFZoD/l7eov4A/KuHIOOAPUbH9CjYpzrut2Xl7TJ9Uvi3ow0CxpQs7tsqrWm5zmPaP2h03YOhnrNSTwx5AfVKR5RHmfsFno52h0WTWZRihzP2DvS3yp5t0/zZaT3FnHJby2rhLm2loWXlUqajYg0Oar2M9ttJ7UaeeXBGUJYzUoyqxf0mxsRKjXuLk9qdlZOz5iMyCCNiPtZVnZOrQ8l1FHtXm38q75IQJVfDNHPGJYmDo1QGHsaH8cEomJoqq4FdirsVdirsVdir//X+8V1YvCWmtE5xneW0HbxaP8Aivftv1yIZAdpfP8AWxqlKC8cKGik9SM9Adx7j2IwygOq2+f/APnLL83tK/KL8jfMvnC/nto7lZ7K006xuZTGbiWa6iVkiCpIzsIyzUCNSnJhxBzm/af2fj232fl0UpcIyAb1dUQRYsbWO8Of2brfyeojlri4enLy5vkb/nCf/nLLRvzb/MXzD5Xlig0i8/Qj3Gj2t1Mn1m9ljni5pAqIingnJ2ALMRvRQu/G+wP/AANR7M58mc5BOWSIjQBoC+I7yJ50Nq6cy7Xtzt2OvhGEIkAG9yL5V0D9KTbtPdC9uWMkqgiCL9mOvUjxJ6V+gZ6yDwx4R8fN5qt1sk7Ss0NqQCppLcUqFP8AKvi36sdoiz8ltDfWrK2/cpJ6kgPxRRgyyFj1Lca7n3wcE57n7dkWAhLq/jKMlxaRJHTpeyxxg/7H4m/DLMeI3cSfgD+wKS8k8yfl1+TXmmaW48y+SPJusXU399c3WmR3czfOV4w/45mCGY84k+8D9rCwxvS/yU/5x50eZJtN/LTyVbzRnlHIdDjLKfEM4cj6Ml4WXpCv9L+pFjve0aTLomnQx2uj22kW0EQ4xW9owtwo8FRkAH35j5cWQ/VxfLb7P1MgR0pkQv0UBp4ZbdT0kK80/wCDjLDMXwj0IP47iztcjCMGeyZZ7dzWSBCCK9yhGwPiO/zw30lsfxzX3Ih0tdQiFG5+mwZHU0eNx0PiCPA4RcD+N15vij/nPH/nISD8kPyu8uww3iTeb/MOtwfonRgpaS4sLdJPrkpoyFFjLIA3IHkR9oAg8t7U+zGn9oNGdJmJESRIEVtKPLY7Ed4dl2Z2jLQZvFiBLYij3H3ci8y/59+f85V2n5ta3558peZLuLS/M0tpZ3/lny8UdnngtvrH16QXLMwkK84qrRKDop3Oaz2P9h9L7M48kMEjI5SDIkAfTYAAHvPMnm39rdry7QlEmIiI3Q3PPvJfptPeOVZpJBFEPtb8VA9yc7iOPudRa22tJL2jyhorM9FNVeX+Kr+J+XVnMQ5c/uRVp+qqiqqqFVRRVAoAB2AzGJtk3irsVdirsVdirsVf/9D7+Yql1zplvO7TIWtrhus8W3L/AF16N9Ir75bDMRsdwgh+cX/PxP8AJD80fzk/LfyhZ/l15dt/N975M1m51XVNNiuRBdTQSWrwL9VifZ5VZqlOW4rTfbLSQRYQ/Of/AJwM/Iv8zdU/PPyb+Ylh5Fv9M8p/l/q1yPM+taywtBb3EEckT2kScQ0kpLrVQp4itSMFAq/oEuZJyxS4LStx5NbRH0oEU95ZTufl+GXx8tvPmfgGJYtf+Y7OEejG319k2W3hrDar7VHxP+rMzFo5S3Pp8zvL9QazMMXuNe1K4BjWYWkHQW9sPSWn+x3P35nQ0mOO9We87sDMlJZJFVWmnlVEBo00rBVB92Y0zJ5MUsn13QLVed1r+l2q7nlNe26Dbr9qQZEyA6rShD5m8sXPH6v5n0afn9gR6hasT8gJMeOPetJjDfafcsVttQtLpx1SGeKQj6FYnJA2qaW19eWh5Wt1LAe/BiAfmOhyueKE/qAKQSGRWfmdhIDfW9X6G+tf3U3+yX7D/IjMTJodvQfgdx+sMhPvZhZ3kF+BNFJ9aYUX67aj07hK9PVi7j7x7Zrp45Y9uXkeXwLaDb4D/wCc/P8AnF/80Pz3sfKXmnyHe6NqNx+X+n30Fz5X1Bjaz3y3Uscpkt7ksIkkQR8QrUDV61pmMaPIM3gX/PuH/nHbz5pPm+3/AD21C20zRPKzaJe6XptlLMbnUri6uSsM5KI1Io4mianOhY9BTfGu8K/bKzsLSqzSSG9uF3EkvRD/AJCdF+fX3yE8kuQ2CgJvlDJ2KuxV2KuxV2KuxV2Kv//R+/EsqQryc/IdzhESVSWe7dwzO4jiHXegHzJzIjCkW8682a7JGG0qKKWOG6hrPcqxikaN6j90w3WtOtM2Wl0gyRMiWmc6eL/ld5L8pflBHrR8pSeYbu48w38uo6udc1aXUkkuJ25TOvq/ZLnckAVIHhlo7Pl1lY+1HiPoqy1PS9ftfSYIxkH76xlpy+7uPcZhZMM8Er+1sEhJ4P8An83mD8uPyy86effIflyTzbrPl6x+tWPldRI7SN6qI7UjBkZI0ZnIXei5lQ7QIib5/e1yx77PRvJVppOr+VvLmsz28NxqGo6VZXWpKCzIlzNbpJKioxPEK7EAHemU5dTnBqWzCEoS5dGNfmh+Rn5U/nDp9vp35g+UodYjswVsbqCe5sbmANuRHPaSwyAE7kVoe+YxJlzJZ3T4O81/8+rfyX1aUTeXfzA84+XDUsIbyS21eNK9BGJY4HAHuzH3yPh2nxCxOx/59Qfl7Bcxzat+cfmXUokYGSO202zspGXwEnqTcT78ThGJTlfSv5a/84O/849flbeQapp/l7UvNOs2snq2+q+ZNSmvGRhQqRbxehbVUioYxch45bHGAwOQl9Tz2trJ9qBCfECh+8ZkxyzjyLVbyXya/nzzF+cP5i+Vb/y5HZfll5ZstKn8uedEDh7u8u4UkurL4iVkMXInko+HYNvkzr5QsENkIiYsPpX/AHC+XrYD91ZpTr1ken/DE5h/vdRLqW/aLzrzHrGk+aLO/wBE1zSmvvL1/E0M9iJTGZUdSrcytDuDtQ7fPM6OgIjsd/xyazkYf5I0TyV+V2nDRvyz8oWnlHSDL6s1lAzlJT0+JSSB8xksfZ4AqRv9CDk7n0NFdf3PrKbWeVVZEfYNUV+BujfRv45qpQ51uG608trutI5jQ/suf45jzh1DK0xypLsVdirsVdirsVdir//S+7jQatcyESJDb8dmuGb1FI/yEFD/AMER9OZPFjiNrP46sd0bDpVtGyyTcruZd1kmoaHxVQAo+gZXLNI7DYeSaS3zB5XsfMAjeZmt7qEcY7lKE8evFgeorl2m1k8HLcHoxlASYQv5Z3HqUfVo/S7sIjy+7lT8c2B7XFfTv72vwfNmWl+TtG0xD+5N3Ow4m4mNWA/yKUC/RvmBm12TIedDybI4wHyN/wA5H/8AOTI/5xw8z6VBqGiS+YPLWo2+nerDE4N3HLe3VxATHzKhgFiGxbx67DNzg0EM3Z51JNSGTg262B+t5LU+0WTB24Oz+EHGcBymV7jhMr+FAd3xYfff85J6GnmlJ9G0a50/QnRVuLlCBIJK7sITQFPbb2zq8fspk8DhySBl0HSvf3vA5f8AgsaKWsAGKXg1vPlMHyHWPeD8A+kvLH5haJ5nsoru2voZopAALqI/BXwdesbexzktb2Vl08iCD7uv7X0/s7tjT67CMuGYnA/xR6eUhziWYO4IqDUHoR0zW07S7QUjdckEJbdXUVuvOV+NfsKN2Y+AHfLIxJ5NU8ghz/afc8f85/mbpfl8NC7/AFi76rpUDAyN/wAZnGyA+A3zoOy+ws+sNxFR/nHl/mjq8L7T+3Oh7GBhklx5f9Sid/8APlyiPLn73z/5o/5zL8w/480v8sfLXlqDQIrny4+qtqzOH4ukjRmOGML24k8i3+x75n6X2bxQ7SGnzkzBgZ3yveqdF2h/wRs2b2flr9HjGOUcoxES34bANijvz2v5Pu78ngvmb8rPLWoa6o1K91aGeS/u5hWSRhcygHl1FABSnTOZ9of8G7RyQxemMSKA9we79iNZl13Y2nz55cU5iRJP9aSZX35bRO5fT9QMKnpDOvKnyZSP1Zj4+1iB6o37npzh7lfTPy6tLeVJtSuze8DX6ui8EP8ArEkkj7sjm7VlIVAUscQ6vRZIYpYzFLEkkRFDGwBUj5HNUJEGw3JTJpBj3sbhof8Al3lrJEflU8l+g/Rl4z39Qv72NdyYWkU8UPG4kWSSpI4AhVHZRXc08TlUyCdkhFZBLsVdirsVdirsVf/T+/mKuxV2KuxVZK/pxySdeClqfIVwgWaV+NH/AD8O0zV9dvPyn1/kLyx8xeY9K0SKFN5FlhnmnChOtCJTSnhnW6PPCOnhpDtI54y8q2H6Hz7trsvNHtDN2kN4R0eSHmJDily87+x5+ep+Zrnrb8rhOtB8x615ZvFvtFv5LKYEeoqmscg/lkQ7MPnmPqNLj1EeHILH45O07J7Z1fZWXxdLkMJde4+UhyL69/Lf8+rLVZrPSNcK6RfzssS8iTaSsxoPTY7xsa9DsTnD9r+zcscTkx+oDf8ApfHvfdfZf/gj6XXmOLU1gynb/apHyP8AAT57W9o1bz3pGnxGSa6hhX/fzOH28VUbsfADOY03Z+XPPhhEk+6vmej3Pafbuk0GA5s2WEIDrxCXyA+o91W+dPOH5q6hqLTW2hmSxtnBWTUJP96ZBv8AZ7IPYb53nZfsxjxVPUVKX83+EfrfBPaf/gpajVmWHs4HFjOxmf72Xu/mDyG7wy6lZ2Z3Yu7ElnY1JJ7k518IgChyfKTIyJJNk8yXzz5gtbub/nIn8rksYWuLrWdD1XT4oU6uVq9Po51zme0s0NN2tp8uQ1E45gn8e99Q9m9Fm7S9mdbpcETPIM2KQA577f71+yH/ADj6+u6Votl5T1OUSW+nWDSonX05Gm5FUbuP3hr79M859o8+PU6qeeHKR+yq/Q+/exvZ2bszszBpMtccI71ysky+y6fR+c89U7FXYq7FXYq7FXYq7FXYq7FXYq//1Pv5irsVdirsVdir86f+c0PLlnaeff8AnEi9hC2GmTfmvapeu7cbZbuWApaBh+zzeor0GZsNSZ0J7gfNrMO5l/5j/kjonmG4uJktv8K+Zmq3rRqPq9w2+7qKA1/mXf552HZfb+fSgC/Fxd38QfNvaf8A4HWi7VvJiHg5j1A9Mj/Sj+kb+98beavJfmLyZd/VdcsGhRiRb3yVaCUDuj9PoO+d7oO0sGtjxYpX3jqPg+Aduezmt7GycGphQPKQ3hL3H9HNI9L21PTv+YmL/iYzNlyLonoHr89QjBNeKvxqem3bLOGousq479F077/PoMAUBmflr8tNY8wMlxehtM07ZizCkrg+Cn7I9z92c92p7TYNJcMfrn/sR7z1+D6h7K/8DPW9qVm1N4cPmPXL3DoPM/JJfOv5eWNj/wA5Of8AOH2iaNAbK5u7vzNdXtwU5M1lFYIzSPX4iC6hQelT4A55p2p2pl1WQZMsuIjp0HuforsH2f0nZOA4dLDgias9ZHvkev4p+qmh+XdN8vwtHZREzSgC4u33keniew9hmlyZZZDu7+EBHknuVs3Yq7FXYq7FXYq7FXYq7FXYq7FX/9X7+Yq7FXYq7FXYq8X/AD+/JjRvz5/LLW/IGq3T6Xd3BjvfLevwisunanannbXKUofhbZgDUqWAIO4INFXyavmD/n4LbaXB5C1T8nvIXnLUbFfqsX5o3GqelbXMaL6a3clqJUcSn7bUCgnbhl2PKcZ4ommJF83u+mfln54k8m6d/wArLh0fX/MFzaKnmjTtGEz2AkH7UCXPxkgdSKe22bXTa8GQkDwTHUODrOz8WqxnHmgJwPMEW+Z/Nf5GNY3ker+UJTJBBOkk+izN8aBWBIic+H8rfQc7ns/2mO2PVCr/AIxy+P6w+H+03/AslC83Zpsc/DPP/Ml19x+bANG8n+adS12O3TRrq3UK4lubmNook2puzDf5CudNq+2dHgxcZyA9wBsn5fpfMOzfYntfX5RhhgnA9ZTBhGPmSRv8Lt9M+TvygjhdT6bahrDCqXHBWWE/zKrgqtPFq5552t7TZtTcYngh3DmfeX332U/4G2h7HrJkHjZx/ER6Y/1Y9Ped/chPOsf/ADlB5D8yqvkH8lvK/wCaHlJIFWzuJ9e+q3guD1knSdI1p4qqnp9vtnJZNTxctn0yOKuae/kT+Sn5mXH5l65/zkV/zkPcaa35n6npo0Lyf5Q0dzLp3lrSA7O0MUhLc5ZSxLMGNOTbnltjE9A2vs/IpdirsVdirsVdirsVdirsVdirsVdir//W+/mKuxV2KuxV2KuxV2KuxV5p5vHlUz0mcpq/IcmtVVyOn98CyqR41NaZtNL4/Af5ldf0NOTh+LzWwXT/ANKxm8nk+qKx2tok5MKdy0nw/QDk5Xw7c2gc93v2i/on6mv6H9P6v+1w+1y/y671+eazJxX6nLjVbJvlbJ2KuxV2KuxV2KuxV2KuxV2KuxV2KuxV2Kv/2Q==;" vertex="1" parent="1">
          <mxGeometry x="38.38" y="155" width="93.24" height="89" as="geometry" />
        </mxCell>
        <mxCell id="IykGiK63NscmSbcy7k2c-2" value="" style="endArrow=classic;html=1;rounded=0;entryX=0.5;entryY=0;entryDx=0;entryDy=0;" edge="1" parent="1" source="IykGiK63NscmSbcy7k2c-1" target="IykGiK63NscmSbcy7k2c-3">
          <mxGeometry width="50" height="50" relative="1" as="geometry">
            <mxPoint x="200" y="210" as="sourcePoint" />
            <mxPoint x="110" y="310" as="targetPoint" />
          </mxGeometry>
        </mxCell>
        <mxCell id="IykGiK63NscmSbcy7k2c-26" value="飞入侦测区域" style="edgeLabel;html=1;align=center;verticalAlign=middle;resizable=0;points=[];" vertex="1" connectable="0" parent="IykGiK63NscmSbcy7k2c-2">
          <mxGeometry x="-0.2857" y="-2" relative="1" as="geometry">
            <mxPoint as="offset" />
          </mxGeometry>
        </mxCell>
        <mxCell id="IykGiK63NscmSbcy7k2c-3" value="探测设备解析黑飞信息" style="rounded=1;whiteSpace=wrap;html=1;fillColor=#1ba1e2;strokeColor=#006EAF;fontColor=#ffffff;fontSize=14;" vertex="1" parent="1">
          <mxGeometry x="38.38" y="297" width="90" height="50" as="geometry" />
        </mxCell>
        <mxCell id="IykGiK63NscmSbcy7k2c-4" value="入侵信号传输至反制设备" style="rounded=1;whiteSpace=wrap;html=1;fillColor=#1ba1e2;strokeColor=#006EAF;fontColor=#ffffff;fontSize=14;" vertex="1" parent="1">
          <mxGeometry x="210" y="257" width="160" height="40" as="geometry" />
        </mxCell>
        <mxCell id="IykGiK63NscmSbcy7k2c-5" value="入侵信号传输至平台" style="rounded=1;whiteSpace=wrap;html=1;fillColor=#1ba1e2;strokeColor=#006EAF;fontColor=#ffffff;fontSize=14;" vertex="1" parent="1">
          <mxGeometry x="210" y="330" width="160" height="40" as="geometry" />
        </mxCell>
        <mxCell id="IykGiK63NscmSbcy7k2c-6" value="开启反制设备" style="rounded=1;whiteSpace=wrap;html=1;fillColor=#1ba1e2;strokeColor=#006EAF;fontColor=#ffffff;fontSize=14;" vertex="1" parent="1">
          <mxGeometry x="650" y="257" width="130" height="40" as="geometry" />
        </mxCell>
        <mxCell id="IykGiK63NscmSbcy7k2c-47" value="" style="rounded=0;orthogonalLoop=1;jettySize=auto;html=1;" edge="1" parent="1" source="IykGiK63NscmSbcy7k2c-7" target="IykGiK63NscmSbcy7k2c-6">
          <mxGeometry relative="1" as="geometry" />
        </mxCell>
        <mxCell id="IykGiK63NscmSbcy7k2c-49" value="可设置" style="edgeLabel;html=1;align=center;verticalAlign=middle;resizable=0;points=[];" vertex="1" connectable="0" parent="IykGiK63NscmSbcy7k2c-47">
          <mxGeometry x="-0.2056" y="-1" relative="1" as="geometry">
            <mxPoint as="offset" />
          </mxGeometry>
        </mxCell>
        <mxCell id="IykGiK63NscmSbcy7k2c-7" value="信息展示和语音告警" style="rounded=1;whiteSpace=wrap;html=1;fillColor=#1ba1e2;strokeColor=#006EAF;fontColor=#ffffff;fontSize=14;" vertex="1" parent="1">
          <mxGeometry x="650" y="330" width="130" height="40" as="geometry" />
        </mxCell>
        <mxCell id="IykGiK63NscmSbcy7k2c-8" value="实施防御" style="rounded=1;whiteSpace=wrap;html=1;fillColor=#1ba1e2;strokeColor=#006EAF;fontColor=#ffffff;fontSize=14;" vertex="1" parent="1">
          <mxGeometry x="827" y="290" width="100" height="50" as="geometry" />
        </mxCell>
        <mxCell id="IykGiK63NscmSbcy7k2c-9" value="" style="endArrow=classic;html=1;rounded=0;entryX=0;entryY=0.5;entryDx=0;entryDy=0;exitX=1;exitY=0.5;exitDx=0;exitDy=0;" edge="1" parent="1" source="IykGiK63NscmSbcy7k2c-3" target="IykGiK63NscmSbcy7k2c-4">
          <mxGeometry width="50" height="50" relative="1" as="geometry">
            <mxPoint x="149" y="310" as="sourcePoint" />
            <mxPoint x="199" y="260" as="targetPoint" />
          </mxGeometry>
        </mxCell>
        <mxCell id="IykGiK63NscmSbcy7k2c-27" value="网络传输" style="edgeLabel;html=1;align=center;verticalAlign=middle;resizable=0;points=[];" vertex="1" connectable="0" parent="IykGiK63NscmSbcy7k2c-9">
          <mxGeometry x="-0.05" y="3" relative="1" as="geometry">
            <mxPoint as="offset" />
          </mxGeometry>
        </mxCell>
        <mxCell id="IykGiK63NscmSbcy7k2c-10" value="" style="endArrow=classic;html=1;rounded=0;exitX=1;exitY=0.5;exitDx=0;exitDy=0;entryX=0;entryY=0.5;entryDx=0;entryDy=0;" edge="1" parent="1" source="IykGiK63NscmSbcy7k2c-3" target="IykGiK63NscmSbcy7k2c-5">
          <mxGeometry width="50" height="50" relative="1" as="geometry">
            <mxPoint x="150" y="450" as="sourcePoint" />
            <mxPoint x="200" y="400" as="targetPoint" />
          </mxGeometry>
        </mxCell>
        <mxCell id="IykGiK63NscmSbcy7k2c-28" value="网络传输" style="edgeLabel;html=1;align=center;verticalAlign=middle;resizable=0;points=[];" vertex="1" connectable="0" parent="IykGiK63NscmSbcy7k2c-10">
          <mxGeometry x="-0.08" y="1" relative="1" as="geometry">
            <mxPoint as="offset" />
          </mxGeometry>
        </mxCell>
        <mxCell id="IykGiK63NscmSbcy7k2c-13" value="" style="endArrow=classic;html=1;rounded=0;entryX=0;entryY=0.5;entryDx=0;entryDy=0;exitX=1;exitY=0.5;exitDx=0;exitDy=0;" edge="1" parent="1" source="IykGiK63NscmSbcy7k2c-6" target="IykGiK63NscmSbcy7k2c-8">
          <mxGeometry width="50" height="50" relative="1" as="geometry">
            <mxPoint x="656" y="285" as="sourcePoint" />
            <mxPoint x="856" y="320" as="targetPoint" />
          </mxGeometry>
        </mxCell>
        <mxCell id="IykGiK63NscmSbcy7k2c-14" value="" style="endArrow=classic;html=1;rounded=0;entryX=0;entryY=0.5;entryDx=0;entryDy=0;exitX=1;exitY=0.5;exitDx=0;exitDy=0;" edge="1" parent="1" source="IykGiK63NscmSbcy7k2c-7" target="IykGiK63NscmSbcy7k2c-8">
          <mxGeometry width="50" height="50" relative="1" as="geometry">
            <mxPoint x="656" y="375" as="sourcePoint" />
            <mxPoint x="856" y="320" as="targetPoint" />
          </mxGeometry>
        </mxCell>
        <mxCell id="IykGiK63NscmSbcy7k2c-16" value="&lt;font style=&quot;font-size: 14px;&quot;&gt;外部无人机入侵反制联动系统平台&lt;/font&gt;" style="swimlane;whiteSpace=wrap;html=1;fillColor=#1ba1e2;fontColor=#ffffff;strokeColor=#006EAF;" vertex="1" parent="1">
          <mxGeometry x="240" y="140" width="520" height="79" as="geometry" />
        </mxCell>
        <mxCell id="IykGiK63NscmSbcy7k2c-18" value="参数配置" style="rounded=1;whiteSpace=wrap;html=1;fillColor=#1ba1e2;fontColor=#ffffff;strokeColor=#006EAF;fontSize=14;" vertex="1" parent="IykGiK63NscmSbcy7k2c-16">
          <mxGeometry x="100" y="40" width="70" height="30" as="geometry" />
        </mxCell>
        <mxCell id="IykGiK63NscmSbcy7k2c-19" value="光电追踪" style="rounded=1;whiteSpace=wrap;html=1;fillColor=#1ba1e2;fontColor=#ffffff;strokeColor=#006EAF;fontSize=14;" vertex="1" parent="IykGiK63NscmSbcy7k2c-16">
          <mxGeometry x="190" y="40" width="70" height="30" as="geometry" />
        </mxCell>
        <mxCell id="IykGiK63NscmSbcy7k2c-20" value="智能联动" style="rounded=1;whiteSpace=wrap;html=1;fillColor=#1ba1e2;fontColor=#ffffff;strokeColor=#006EAF;fontSize=14;" vertex="1" parent="IykGiK63NscmSbcy7k2c-16">
          <mxGeometry x="278.5" y="40" width="70" height="30" as="geometry" />
        </mxCell>
        <mxCell id="IykGiK63NscmSbcy7k2c-21" value="开闭控制" style="rounded=1;whiteSpace=wrap;html=1;fillColor=#1ba1e2;fontColor=#ffffff;strokeColor=#006EAF;fontSize=14;" vertex="1" parent="IykGiK63NscmSbcy7k2c-16">
          <mxGeometry x="360" y="40" width="70" height="30" as="geometry" />
        </mxCell>
        <mxCell id="IykGiK63NscmSbcy7k2c-22" value="数据查询" style="rounded=1;whiteSpace=wrap;html=1;fillColor=#1ba1e2;fontColor=#ffffff;strokeColor=#006EAF;fontSize=14;" vertex="1" parent="IykGiK63NscmSbcy7k2c-16">
          <mxGeometry x="440" y="40" width="70" height="30" as="geometry" />
        </mxCell>
        <mxCell id="IykGiK63NscmSbcy7k2c-17" value="信息展示" style="rounded=1;whiteSpace=wrap;html=1;fillColor=#1ba1e2;fontColor=#ffffff;strokeColor=#006EAF;fontSize=14;" vertex="1" parent="IykGiK63NscmSbcy7k2c-16">
          <mxGeometry x="10" y="40" width="70" height="30" as="geometry" />
        </mxCell>
        <mxCell id="IykGiK63NscmSbcy7k2c-25" value="&lt;font style=&quot;font-size: 16px;&quot;&gt;黑飞来了&lt;/font&gt;" style="text;strokeColor=none;fillColor=none;html=1;fontSize=24;fontStyle=1;verticalAlign=middle;align=center;" vertex="1" parent="1">
          <mxGeometry x="49" y="115" width="100" height="40" as="geometry" />
        </mxCell>
        <mxCell id="IykGiK63NscmSbcy7k2c-31" value="反制设备接收入侵信号" style="rounded=1;whiteSpace=wrap;html=1;fillColor=#1ba1e2;strokeColor=#006EAF;fontColor=#ffffff;fontSize=14;" vertex="1" parent="1">
          <mxGeometry x="414" y="257" width="160" height="40" as="geometry" />
        </mxCell>
        <mxCell id="IykGiK63NscmSbcy7k2c-32" value="" style="endArrow=classic;html=1;rounded=0;entryX=0;entryY=0.5;entryDx=0;entryDy=0;" edge="1" parent="1" target="IykGiK63NscmSbcy7k2c-31">
          <mxGeometry width="50" height="50" relative="1" as="geometry">
            <mxPoint x="370" y="277" as="sourcePoint" />
            <mxPoint x="420" y="227" as="targetPoint" />
          </mxGeometry>
        </mxCell>
        <mxCell id="IykGiK63NscmSbcy7k2c-33" value="接收" style="edgeLabel;html=1;align=center;verticalAlign=middle;resizable=0;points=[];" vertex="1" connectable="0" parent="IykGiK63NscmSbcy7k2c-32">
          <mxGeometry x="-0.0909" relative="1" as="geometry">
            <mxPoint as="offset" />
          </mxGeometry>
        </mxCell>
        <mxCell id="IykGiK63NscmSbcy7k2c-34" value="平台接收入侵信号" style="rounded=1;whiteSpace=wrap;html=1;fillColor=#1ba1e2;strokeColor=#006EAF;fontColor=#ffffff;fontSize=14;" vertex="1" parent="1">
          <mxGeometry x="414" y="330" width="160" height="40" as="geometry" />
        </mxCell>
        <mxCell id="IykGiK63NscmSbcy7k2c-35" value="" style="endArrow=classic;html=1;rounded=0;entryX=0;entryY=0.5;entryDx=0;entryDy=0;" edge="1" parent="1" source="IykGiK63NscmSbcy7k2c-5" target="IykGiK63NscmSbcy7k2c-34">
          <mxGeometry width="50" height="50" relative="1" as="geometry">
            <mxPoint x="350" y="290" as="sourcePoint" />
            <mxPoint x="400" y="370" as="targetPoint" />
          </mxGeometry>
        </mxCell>
        <mxCell id="IykGiK63NscmSbcy7k2c-36" value="接收" style="edgeLabel;html=1;align=center;verticalAlign=middle;resizable=0;points=[];" vertex="1" connectable="0" parent="IykGiK63NscmSbcy7k2c-35">
          <mxGeometry x="-0.0909" y="1" relative="1" as="geometry">
            <mxPoint as="offset" />
          </mxGeometry>
        </mxCell>
        <mxCell id="IykGiK63NscmSbcy7k2c-39" value="" style="endArrow=classic;html=1;rounded=0;entryX=0;entryY=0.5;entryDx=0;entryDy=0;exitX=1;exitY=0.5;exitDx=0;exitDy=0;" edge="1" parent="1" source="IykGiK63NscmSbcy7k2c-31" target="IykGiK63NscmSbcy7k2c-6">
          <mxGeometry width="50" height="50" relative="1" as="geometry">
            <mxPoint x="570" y="287" as="sourcePoint" />
            <mxPoint x="620" y="237" as="targetPoint" />
          </mxGeometry>
        </mxCell>
        <mxCell id="IykGiK63NscmSbcy7k2c-40" value="触发" style="edgeLabel;html=1;align=center;verticalAlign=middle;resizable=0;points=[];" vertex="1" connectable="0" parent="IykGiK63NscmSbcy7k2c-39">
          <mxGeometry x="-0.2105" relative="1" as="geometry">
            <mxPoint as="offset" />
          </mxGeometry>
        </mxCell>
        <mxCell id="IykGiK63NscmSbcy7k2c-41" value="" style="endArrow=classic;html=1;rounded=0;entryX=0;entryY=0.5;entryDx=0;entryDy=0;exitX=1;exitY=0.5;exitDx=0;exitDy=0;" edge="1" parent="1" source="IykGiK63NscmSbcy7k2c-34" target="IykGiK63NscmSbcy7k2c-7">
          <mxGeometry width="50" height="50" relative="1" as="geometry">
            <mxPoint x="570" y="360" as="sourcePoint" />
            <mxPoint x="620" y="310" as="targetPoint" />
          </mxGeometry>
        </mxCell>
        <mxCell id="IykGiK63NscmSbcy7k2c-42" value="同步展示" style="edgeLabel;html=1;align=center;verticalAlign=middle;resizable=0;points=[];" vertex="1" connectable="0" parent="IykGiK63NscmSbcy7k2c-41">
          <mxGeometry x="-0.1316" relative="1" as="geometry">
            <mxPoint as="offset" />
          </mxGeometry>
        </mxCell>
      </root>
    </mxGraphModel>
  </diagram>
</mxfile>
